<svg width="2373" height="1697" viewBox="0 0 2373 1697" fill="none" xmlns="http://www.w3.org/2000/svg">
<path opacity="0.1" d="M2270.91 1687.12C2122.72 1687.12 119.25 1682.8 119.25 1682.56C118.42 1680.62 -135.08 1369.91 184.13 1045.06C342.3 884.105 38.8801 675.575 184.13 496.525C432.94 189.824 679.12 362.554 884.2 276.294C920.44 261.064 956.8 236.564 993.2 198.954C1013.69 177.804 1036.14 159.314 1060.18 143.344C1063.87 140.884 1067.59 138.484 1071.35 136.154C1085.74 127.224 1100.67 119.154 1116.04 111.894C1126.37 107.024 1136.88 102.524 1147.6 98.3845C1164.6 91.8145 1182.07 86.1445 1199.91 81.3545C1225.25 74.5445 1251.33 69.4745 1277.93 66.0445C1289.53 64.5345 1301.23 63.3545 1313.02 62.4645C1542.18 45.2345 1800.06 142.134 1933.15 283.764C1959.94 312.284 2081.78 459.844 1985.74 662.674C1925.1 790.734 2179.14 913.034 2269.41 1059.27C2498.92 1431.06 2272.99 1682.27 2270.9 1687.12H2270.91Z" fill="#2BAD40"/>
<g opacity="0.8">
<path d="M1752.4 822.714C1746.28 839.534 1738.78 855.474 1730.05 870.414C1709.1 906.274 1681.16 936.424 1648.66 959.734C1573.15 1013.91 1473.06 1031.1 1379.12 996.954C1267.37 956.334 1195.59 854.454 1187.95 743.004C1186.93 728.314 1187.03 713.464 1188.32 698.564C1190.44 673.544 1195.88 648.384 1204.86 623.674C1212.13 603.684 1221.36 584.964 1232.25 567.674C1232.37 567.474 1232.5 567.284 1232.62 567.084C1262.86 519.324 1305.81 482.454 1355.21 459.344C1369.22 452.784 1383.76 447.334 1398.68 443.064C1405.79 441.024 1413.01 439.254 1420.27 437.774C1471.24 427.284 1525.65 430.334 1578.16 449.424C1585.12 451.954 1591.93 454.724 1598.57 457.724C1607.95 461.934 1617 466.604 1625.71 471.684C1662.4 493.074 1693.1 521.784 1716.64 555.204H1716.65C1731.32 576.014 1743.19 598.644 1751.98 622.474C1756.6 634.994 1760.37 647.834 1763.24 660.924C1765.03 669.074 1766.47 677.294 1767.56 685.614C1770.18 705.584 1770.72 725.954 1769.08 746.434C1767.02 771.904 1761.55 797.544 1752.4 822.734V822.714Z" fill="#D7E5FF"/>
<path d="M1430.17 566.834C1412.96 580.164 1417.52 615.834 1387.72 595.734C1357.92 575.624 1339.22 564.694 1330.78 582.244C1322.33 599.794 1348.74 609.394 1341.79 628.514C1334.84 647.634 1320.7 649.654 1305.8 633.954C1290.88 618.254 1290.45 603.144 1266.31 603.644C1242.16 604.144 1231.86 594.214 1233.04 576.084C1233.24 572.894 1232.92 570.134 1232.25 567.674C1232.37 567.474 1232.5 567.284 1232.62 567.084C1262.86 519.324 1305.81 482.454 1355.21 459.344C1369.22 452.784 1383.76 447.334 1398.68 443.064C1405.79 441.024 1413.01 439.254 1420.27 437.774C1428.69 441.194 1437.72 448.134 1442.5 462.054C1453.01 492.684 1470.06 485.474 1455.58 511.134C1441.09 536.784 1447.06 543.084 1462.86 547.794C1478.67 552.504 1496.88 559.124 1494.4 571.624C1491.91 584.124 1447.39 553.494 1430.17 566.834V566.834Z" fill="#AEC3FF"/>
<path d="M1752.4 822.714C1746.28 839.534 1738.78 855.474 1730.05 870.414C1709.1 906.274 1681.16 936.424 1648.66 959.734C1640.56 959.484 1633.19 956.734 1626.98 951.184C1597.8 925.114 1636.47 897.434 1656.83 883.954C1677.19 870.484 1639.39 866.014 1620.33 839.764C1601.27 813.514 1645.9 777.934 1617.22 776.014C1588.54 774.094 1553.66 772.234 1547.82 741.514C1541.98 710.794 1572.15 717.114 1566.87 691.234C1561.59 665.354 1586.54 660.504 1613.23 667.894C1639.92 675.274 1643.21 655.604 1676.29 664.534C1709.38 673.464 1693.8 714.184 1730.3 724.364C1766.8 734.544 1762.22 742.154 1762.22 742.154C1764.8 743.014 1767.09 744.454 1769.07 746.404C1767.01 771.874 1761.54 797.514 1752.39 822.704L1752.4 822.714Z" fill="#AEC3FF"/>
<path d="M1767.57 685.604C1732.82 689.234 1735.17 645.854 1705.67 648.434C1675.92 651.024 1688.65 629.875 1673.93 608.035C1659.19 586.195 1609.54 598.034 1619.63 575.924C1629.72 553.834 1657.45 571.114 1670.44 555.234C1683.43 539.344 1710.91 554.484 1710.91 554.484C1712.79 554.454 1714.71 554.694 1716.65 555.204C1716.65 555.204 1716.65 555.194 1716.66 555.204C1731.33 576.014 1743.2 598.634 1751.99 622.474C1756.61 634.994 1760.38 647.834 1763.25 660.924C1765.04 669.074 1766.48 677.294 1767.57 685.614V685.604Z" fill="#AEC3FF"/>
<path d="M1547.36 516.664C1547.36 516.664 1570.95 499.964 1548.77 484.434C1526.58 468.914 1523.9 477.704 1505.53 468.714C1487.15 459.724 1474.26 471.794 1482.73 493.164C1491.19 514.534 1491.53 549.764 1510.51 537.954C1529.49 526.144 1531.54 512.714 1547.37 516.664H1547.36Z" fill="#AEC3FF"/>
</g>
<path d="M185.41 1687.39H287.01C292.45 1682.77 283.24 1672.28 273.62 1671.58C269.44 1671.26 264.15 1672.14 258.11 1673.41C256.71 1654.84 248.73 1571.36 218.64 1574.72C184.81 1578.48 218.64 1611.48 228.2 1631.02C235.29 1645.49 242.76 1666.25 246.17 1676.05C243.42 1676.64 240.58 1677.23 237.67 1677.76C233.19 1663.99 216.5 1617.68 195.28 1620.38C170.37 1623.54 180.38 1642.11 198.04 1653.13C210.99 1661.24 226.9 1672.76 234.46 1678.32C228.06 1679.37 221.37 1680.07 214.59 1679.91C197.19 1679.5 188.69 1684.62 185.4 1687.38L185.41 1687.39Z" fill="#A8D29F"/>
<path d="M1802.31 1686.39H1707.94C1702.88 1682.1 1711.44 1672.36 1720.38 1671.7C1724.26 1671.41 1729.17 1672.22 1734.78 1673.4C1736.08 1656.15 1743.49 1578.61 1771.44 1581.73C1802.87 1585.22 1771.44 1615.88 1762.56 1634.03C1755.98 1647.47 1749.04 1666.75 1745.86 1675.85C1748.41 1676.4 1751.05 1676.94 1753.75 1677.44C1757.92 1664.65 1773.41 1621.63 1793.12 1624.14C1816.26 1627.08 1806.96 1644.32 1790.56 1654.56C1778.53 1662.09 1763.75 1672.79 1756.73 1677.96C1762.68 1678.93 1768.89 1679.59 1775.18 1679.44C1791.35 1679.06 1799.23 1683.82 1802.29 1686.38L1802.31 1686.39Z" fill="#A8D29F"/>
<path d="M1000.95 1055.42L951.181 1647.22C951.181 1647.22 945.97 1683.09 972.65 1683.16C1016.52 1683.26 1191.03 1683.16 1191.03 1683.16C1191.03 1683.16 1158.01 1675.69 1158.41 1658.89C1158.88 1639.09 1216.58 1049.82 1216.58 1049.82L1000.95 1055.42Z" fill="#7599EA"/>
<path d="M1207.45 1672.66C1198.82 1672.69 1029.88 1672.97 987.15 1672.42C968.53 1672.19 965.26 1655.86 965.11 1645.3C965.03 1640.24 965.68 1636.49 965.68 1636.49L966.97 1621.11L970.27 1581.91L973.18 1547.27L976.93 1502.76L980.08 1465.19L1015.45 1044.67L1231.08 1039.07C1231.08 1039.07 1206.78 1285.68 1189.59 1465.18C1187.67 1485.18 1185.85 1504.36 1184.16 1522.26C1183.61 1527.98 1183.09 1533.56 1182.57 1539C1180.98 1555.98 1179.52 1571.58 1178.25 1585.35C1177.58 1592.61 1176.96 1599.35 1176.41 1605.53C1174.22 1629.74 1172.93 1645.2 1172.91 1648.14C1172.91 1649.85 1173.05 1651.45 1173.33 1652.93C1176.87 1671.79 1204.21 1672.64 1207.45 1672.64V1672.66Z" fill="#90AFF4"/>
<path d="M477.291 733.385L598.531 1220.37L615.131 1287.06L671.591 1513.88H1720.64L1512.52 733.385H477.291Z" fill="#AEC3FF"/>
<path d="M477.29 733.385L460.49 738.984L649.26 1530.82L671.6 1513.88L477.29 733.385Z" fill="#90AFF4"/>
<path d="M649.26 1530.82H1691.85L1720.64 1513.88H671.6L649.26 1530.82Z" fill="#7599EA"/>
<path d="M1015.38 1683.39H1241.12V1672.66H1015.38V1683.39Z" fill="#AEC3FF"/>
<path d="M1183.74 1530.82L1182.57 1539.02L970.281 1581.91L973.191 1547.27L974.581 1530.82H1183.74Z" fill="#5888DD"/>
<path opacity="0.4" d="M1207.45 1672.66C1198.82 1672.69 1029.88 1672.97 987.149 1672.42C968.529 1672.19 965.259 1655.86 965.109 1645.3L1176.4 1605.55C1174.21 1629.76 1172.92 1645.22 1172.9 1648.16C1172.9 1649.87 1173.04 1651.47 1173.32 1652.95C1176.86 1671.81 1204.2 1672.66 1207.44 1672.66H1207.45Z" fill="#5888DD"/>
<path d="M477.291 733.385H1512.52L1680.48 1360.66H633.451L477.291 733.385Z" fill="#AEC3FF"/>
<path d="M1631.66 1333.47H662.37L627.73 1195.49L614.33 1142.1L608.87 1120.33L573.27 978.535L571.42 971.155L552.61 896.195L544.19 862.665L537.01 834.055L520.17 766.995H1475.48L1493.97 834.055L1501.86 862.665L1511.1 896.195L1572.01 1117.14V1117.15L1577.17 1135.87L1579.57 1144.56L1621.63 1297.09L1631.66 1333.47Z" fill="#739AF0"/>
<path d="M1493.97 834.054H537.01L520.17 766.984H1475.49L1493.97 834.054Z" fill="#607CF4"/>
<path d="M559.691 797.295C558.541 792.665 561.351 788.915 565.981 788.915C570.611 788.915 575.301 792.665 576.451 797.295C577.601 801.925 574.791 805.675 570.161 805.675C565.531 805.675 560.841 801.925 559.691 797.295Z" fill="#E9F3FE"/>
<path d="M587.55 797.295C586.4 792.665 589.21 788.915 593.84 788.915C598.47 788.915 603.16 792.665 604.31 797.295C605.46 801.925 602.65 805.675 598.02 805.675C593.39 805.675 588.7 801.925 587.55 797.295Z" fill="#E9F3FE"/>
<path d="M617.55 797.295C616.4 792.665 619.21 788.915 623.84 788.915C628.47 788.915 633.16 792.665 634.31 797.295C635.46 801.925 632.65 805.675 628.02 805.675C623.39 805.675 618.7 801.925 617.55 797.295Z" fill="#E9F3FE"/>
<path d="M1285.45 377.085C1324.63 331.085 1385.04 238.684 1425.71 191.374C1434.08 181.634 1427.12 166.604 1414.28 166.604H1340.27L1410.08 8.74448C1413.06 2.00448 1403.88 -3.36553 1399.46 2.53447L1230.66 228.454C1225.74 235.044 1231.12 244.324 1239.29 243.314L1323.08 232.994L1273.23 369.934C1270.49 377.474 1280.25 383.184 1285.45 377.074V377.085Z" fill="#059879"/>
<path d="M937 657.245C945.81 612.035 951.38 528.075 960.69 481.435C962.61 471.835 952.36 464.455 943.83 469.255L894.67 496.935L881.99 365.975C881.45 360.385 873.34 360.255 872.62 365.825L845.01 579.015C844.21 585.235 851.25 589.385 856.3 585.655L908.09 547.465L926.2 657.065C927.2 663.095 935.82 663.235 936.99 657.235L937 657.245Z" fill="#AEC3FF"/>
<path d="M1674 1346.83L831.769 1417.79C767.819 1423.18 721.539 1357.98 747.719 1299.39L1104.54 500.824C1131.61 440.244 1214.82 433.234 1251.64 488.434L1737.05 1216.04C1772.67 1269.43 1737.95 1341.45 1674 1346.84V1346.83Z" fill="#E6EFFF"/>
<path d="M1676.68 1378.68L834.45 1449.64C793.03 1453.13 753.93 1434.98 729.87 1401.08C705.81 1367.18 701.57 1324.29 718.53 1286.34L1075.35 487.774C1092.88 448.534 1128.92 422.954 1171.75 419.344C1214.58 415.734 1254.39 434.924 1278.24 470.684L1763.65 1198.29C1786.72 1232.87 1789.72 1275.87 1771.67 1313.31C1753.62 1350.75 1718.11 1375.19 1676.69 1378.68H1676.68ZM1177.12 483.054C1157.84 484.674 1141.62 496.194 1133.73 513.854L776.91 1312.42C769.28 1329.5 771.19 1348.81 782.02 1364.06C792.85 1379.32 810.45 1387.49 829.09 1385.92L1671.32 1314.96C1689.96 1313.39 1705.95 1302.39 1714.07 1285.54C1722.19 1268.69 1720.85 1249.33 1710.46 1233.77L1225.05 506.164C1214.31 490.074 1196.4 481.434 1177.12 483.054V483.054Z" fill="#059879"/>
<path d="M1157.38 1224.65C1156.47 1213.8 1157.55 1203.6 1160.66 1194.06C1163.76 1184.53 1168.56 1176.09 1175.07 1168.75C1181.58 1161.42 1189.64 1155.43 1199.27 1150.81C1208.89 1146.2 1219.94 1143.35 1232.41 1142.3C1244.87 1141.25 1256.33 1142.2 1266.75 1145.12C1277.18 1148.05 1286.22 1152.6 1293.86 1158.74C1301.51 1164.89 1307.65 1172.41 1312.3 1181.28C1316.95 1190.17 1319.73 1200.03 1320.65 1210.89C1321.56 1221.74 1320.46 1231.86 1317.35 1241.23C1314.24 1250.61 1309.43 1258.96 1302.92 1266.3C1296.41 1273.64 1288.26 1279.63 1278.47 1284.26C1268.68 1288.89 1257.55 1291.74 1245.08 1292.79C1232.61 1293.84 1221.24 1292.89 1210.99 1289.95C1200.73 1287.01 1191.78 1282.46 1184.13 1276.31C1176.49 1270.17 1170.34 1262.74 1165.71 1254.01C1161.07 1245.29 1158.3 1235.5 1157.38 1224.65V1224.65ZM1287.59 1072.28L1166.27 1082.5L1114.16 669.434L1269.85 656.314L1287.59 1072.28V1072.28Z" fill="#059879"/>
<path d="M1708.32 1099.99C1708.32 1099.99 1705.75 1094.05 1704.09 1091.24C1702.43 1088.43 1695.32 1080.19 1694.11 1082.05C1692.9 1083.92 1688.06 1096.47 1690.63 1099.99C1693.2 1103.51 1690.46 1109.62 1703.25 1113.33L1708.32 1099.99V1099.99Z" fill="#FFB27D"/>
<path d="M1850.42 1062.49C1850.42 1062.49 1784.96 1118.66 1759.44 1113.46C1739.48 1109.39 1707.93 1099.11 1707.93 1099.11C1707.93 1099.11 1699.6 1107.25 1701.96 1117.01C1701.96 1117.01 1742.16 1155.89 1770.8 1156.14C1815.57 1156.53 1836.68 1133.34 1836.68 1133.34L1850.43 1062.5L1850.42 1062.49Z" fill="#ED7D2B"/>
<path d="M1965.22 1654.93C1965.22 1654.93 1963.32 1686.44 1957.39 1686.89C1956.6 1686.95 1927.31 1686.95 1927.31 1686.95L1889.92 1686.73C1889.92 1686.73 1890.16 1677.47 1901.09 1675.51C1912.02 1673.55 1930.31 1665.66 1936.93 1650.81C1943.89 1635.19 1965.21 1654.93 1965.21 1654.93H1965.22Z" fill="#113C68"/>
<path d="M1967.37 1657.12C1967.37 1657.12 1956 1661.03 1947.13 1661.03C1937.23 1661.03 1928.23 1658.26 1928.23 1658.26C1928.23 1658.26 1926.09 1636.99 1914.31 1590.12C1908.14 1565.55 1899.32 1533.96 1886.78 1494.71C1852.1 1386.23 1841.55 1322.77 1840.59 1316.76C1840.54 1316.44 1840.52 1316.29 1840.52 1316.29L1840.63 1316.24L1947.25 1268.12C1947.25 1268.12 1934.07 1417.63 1950.88 1475.02C1953.24 1483.04 1955.25 1492.39 1956.98 1502.51C1967.6 1564.84 1967.35 1657.13 1967.35 1657.13L1967.37 1657.12Z" fill="#2A4E96"/>
<path d="M1914.32 1590.12C1908.15 1565.55 1899.33 1533.96 1886.79 1494.71C1852.11 1386.23 1841.56 1322.77 1840.6 1316.76C1840.61 1316.58 1840.62 1316.41 1840.64 1316.23L1947.26 1268.11C1947.26 1268.11 1934.08 1417.62 1950.89 1475.01C1953.25 1483.03 1914.31 1590.12 1914.31 1590.12H1914.32Z" fill="#233862"/>
<path d="M1881.94 1654.93C1881.94 1654.93 1880.04 1686.44 1874.11 1686.89C1873.32 1686.95 1844.03 1686.95 1844.03 1686.95L1806.64 1686.73C1806.64 1686.73 1806.89 1677.47 1817.81 1675.51C1828.74 1673.55 1847.03 1665.66 1853.65 1650.81C1860.61 1635.19 1881.93 1654.93 1881.93 1654.93H1881.94Z" fill="#15447C"/>
<path d="M1821.49 1271.63C1821.49 1271.63 1820.1 1368.51 1836.41 1487.47C1852.72 1606.43 1847.19 1656.92 1847.19 1656.92C1847.19 1656.92 1858.39 1660.65 1862.91 1661.03C1874.43 1661.99 1886.24 1658.25 1886.24 1658.25C1886.24 1658.25 1909.58 1539.25 1902.89 1479.71C1896.2 1420.17 1934.85 1275.4 1934.85 1275.4L1821.48 1271.62L1821.49 1271.63Z" fill="#2A4E96"/>
<path d="M1897.09 1044.91L1876.28 1058.94L1857.32 1053.43C1853.85 1048.35 1852.94 1038.55 1852.89 1030.07C1852.84 1021.65 1853.63 1014.51 1853.63 1014.51L1881.71 1001.77L1892.19 997.024C1892.16 997.194 1891.37 1005.86 1891.26 1007.13C1889.3 1029.62 1897.09 1044.91 1897.09 1044.91Z" fill="#FFB27D"/>
<path d="M1821.01 1298.57C1846.92 1324.28 1944.96 1319.96 1951 1291.63C1957.03 1263.3 1944.41 1050.48 1900.16 1037.11C1890.98 1034.34 1841.88 1050.65 1841.88 1050.65C1841.88 1050.65 1834.18 1071.37 1829.12 1097.74C1828.14 1102.87 1825.28 1157.26 1823.14 1208.14C1822.14 1231.94 1821.3 1254.97 1820.86 1271.84C1820.47 1287.64 1820.45 1298.02 1821 1298.58L1821.01 1298.57Z" fill="#F99746"/>
<path d="M1889.16 1007.53C1883.46 1017.43 1863.48 1026.1 1852.89 1030.07C1852.84 1021.65 1853.63 1014.51 1853.63 1014.51L1881.71 1001.77C1887.92 1001.69 1891.7 1003.11 1889.16 1007.53V1007.53Z" fill="#FCA56B"/>
<path d="M1843.04 1012.75C1843.04 1012.75 1888.28 1027.26 1896.64 998.165C1905 969.065 1916.46 951.335 1887.93 940.845C1859.4 930.355 1850.57 939.745 1845.48 948.765C1840.39 957.785 1831.49 1008.24 1843.04 1012.76V1012.75Z" fill="#FFB27D"/>
<path d="M1847.26 945.944C1847.26 945.944 1850.15 979.815 1856.96 978.345C1863.77 976.875 1871.27 973.725 1870.28 983.935C1869.28 994.145 1876.9 1011.64 1886.73 1011.6C1907.8 1011.51 1930.69 955.935 1924.93 945.395C1908.29 914.985 1823.22 908.845 1847.27 945.944H1847.26Z" fill="#163560"/>
<path d="M1853.91 1037.84C1854.49 1037.59 1887.59 1022.33 1891.46 1023.64C1895.33 1024.95 1900.16 1037.11 1900.16 1037.11L1841.88 1050.65C1841.88 1050.65 1846.47 1041.06 1853.91 1037.84Z" fill="#ED7D2B"/>
<path d="M1647.86 1202.66L1833.39 1382.23C1837.03 1385.75 1841.61 1386.87 1843.58 1384.72L1849.84 1377.88C1851.81 1375.73 1850.44 1371.09 1846.81 1367.57L1661.28 1188C1657.64 1184.48 1653.06 1183.36 1651.09 1185.51L1644.83 1192.35C1642.86 1194.5 1644.23 1199.14 1647.86 1202.66Z" fill="#1F4D84"/>
<path d="M1751.97 1303.43L1833.39 1382.23C1837.03 1385.75 1841.61 1386.87 1843.58 1384.72L1849.84 1377.88C1851.81 1375.73 1850.44 1371.09 1846.81 1367.57L1765.39 1288.77L1751.97 1303.42V1303.43Z" fill="#739AF0"/>
<path d="M1690.5 1134.86C1683.38 1158.99 1670.19 1181.59 1651.03 1200.11C1592.54 1256.68 1500.5 1253.79 1445.47 1193.67C1391.16 1134.33 1393.18 1041.43 1449.47 984.635C1450.21 983.875 1450.98 983.115 1451.75 982.375C1510.23 925.805 1602.26 928.675 1657.29 988.805C1694.31 1029.24 1705.16 1085.29 1690.5 1134.86ZM1648.94 996.895C1616.92 961.905 1571.28 947.954 1528.43 955.584C1503.46 960.024 1479.45 971.784 1459.61 990.964C1405.73 1043.06 1403.15 1130.19 1453.84 1185.58C1472.5 1205.97 1495.77 1219.2 1520.42 1225.21C1562.75 1235.51 1609.13 1224.46 1643.17 1191.53C1697.05 1139.42 1699.64 1052.29 1648.94 996.905V996.895Z" fill="#1F4D84"/>
<g opacity="0.5">
<path d="M1453.84 1185.58C1472.5 1205.97 1495.77 1219.2 1520.42 1225.21C1562.74 1235.5 1609.12 1224.45 1643.17 1191.52C1697.05 1139.42 1699.63 1052.28 1648.94 996.894C1616.91 961.904 1571.28 947.954 1528.43 955.584C1503.46 960.024 1479.44 971.784 1459.61 990.964C1405.73 1043.06 1403.15 1130.2 1453.84 1185.58Z" fill="#B3CFF9"/>
</g>
<path d="M1820.86 1271.83C1923.09 1196.95 1914.59 1097.02 1914.59 1097.02C1877.22 1118.68 1840.15 1166.58 1823.14 1208.13C1822.14 1231.93 1821.3 1254.96 1820.86 1271.83Z" fill="#ED7D2B"/>
<path d="M1719.97 1237.73C1712.76 1236.02 1707.92 1230.42 1706.91 1229.44C1706.91 1229.44 1703.84 1229.66 1707.41 1236.4C1707.71 1236.96 1708.37 1238.41 1708.88 1239.44C1709.08 1239.86 1708.8 1240.35 1708.35 1240.38C1704.19 1240.71 1700.01 1239.01 1691.99 1240.73C1690.88 1240.97 1690.56 1243.69 1690.6 1244.85C1690.67 1246.81 1690.53 1249.02 1692.75 1252.03C1694.04 1253.78 1697.64 1255.66 1705.67 1258.98C1708.73 1260.24 1717.47 1259.29 1725.66 1256.4L1732.21 1253.28L1730.18 1240.78L1728.54 1241.13C1725.93 1241.69 1722.7 1238.42 1719.97 1237.73V1237.73Z" fill="#FFB27D"/>
<path d="M1882.87 1050.65C1882.87 1050.65 1974.73 1068.63 1855.84 1205.37C1836.83 1227.24 1734.1 1255.71 1734.1 1255.71C1734.1 1255.71 1723.68 1246.6 1728.93 1239.22C1728.93 1239.22 1799.66 1186.42 1815.22 1178.03C1822.22 1174.25 1842.39 1093.76 1853.8 1074.38C1865.21 1055 1882.86 1050.65 1882.86 1050.65H1882.87Z" fill="#F99746"/>
<path d="M1705.83 1101.65C1705.83 1101.65 1702.83 1095.75 1702.24 1092.63C1701.65 1089.52 1697.87 1080.44 1696.31 1078.84C1695.69 1078.2 1693.63 1079.03 1693.39 1081.78C1693.28 1082.98 1693.86 1085.16 1694.87 1087.75C1696.51 1091.98 1696.24 1097.71 1696.81 1099.62C1698.23 1104.38 1705.83 1101.65 1705.83 1101.65Z" fill="#FFB27D"/>
<path d="M674.53 864.995C672.92 866.835 672.72 868.885 673.51 871.085C673.51 871.085 673.51 871.105 673.53 871.115C675 875.175 679.85 879.715 685.49 884.245C686.21 884.825 686.85 885.355 687.41 885.845C687.56 885.975 687.7 886.105 687.84 886.235C687.95 886.335 688.06 886.435 688.17 886.535C693.43 891.385 691.45 892.495 700.89 902.335C711.66 913.545 719.07 913.755 721.18 912.725C722.97 911.855 719.34 905.915 715.32 899.225C715.13 898.905 714.93 898.575 714.74 898.255C714.2 897.365 713.67 896.465 713.14 895.575C708.43 887.535 709.64 883.765 710.76 871.795C711.67 862.075 725.91 817.475 725.91 817.475L705.27 813.915C705.27 813.915 699.04 849.425 692.19 854.895C688.53 857.805 684.43 857.845 680.91 860.005C680.66 860.155 680.42 860.305 680.18 860.465C678.18 861.795 676.14 863.155 674.53 865.005V864.995Z" fill="#FFB27D"/>
<path d="M674.53 864.994C672.92 866.834 672.72 868.884 673.51 871.084C673.51 871.084 673.51 871.104 673.53 871.114C675.33 875.174 680.06 879.684 685.51 884.204C686.22 884.794 686.85 885.334 687.41 885.844C687.56 885.974 687.7 886.104 687.84 886.234C687.95 886.334 688.06 886.434 688.17 886.534C693.43 891.384 691.45 892.494 700.89 902.334C711.66 913.544 719.07 913.754 721.18 912.724C722.97 911.854 719.34 905.914 715.32 899.224C713.22 898.454 703.48 894.494 696.12 885.064C689.87 877.084 685.63 866.924 681.38 860.674C680.91 860.584 680.63 860.534 680.17 860.444C678.17 861.774 676.13 863.134 674.52 864.984L674.53 864.994Z" fill="#233862"/>
<path d="M840.98 852.165C842.25 858.535 851.34 857.475 861.48 855.005C871.63 852.525 869.221 855.475 883.661 853.885C898.101 852.295 902.481 846.905 902.921 844.765C903.321 842.855 896.181 842.185 888.531 841.305C887.571 841.195 886.6 841.075 885.63 840.955C876.99 839.865 870.661 834.285 862.811 829.705C855.381 825.365 844.291 807.685 844.291 807.685L824.48 809.245C824.48 809.245 834.871 825.035 838.891 831.895C841.251 835.935 841.13 841.275 840.83 845.395C840.68 847.635 840.53 849.925 840.98 852.175V852.165Z" fill="#FFB27D"/>
<path d="M861.479 855.004C871.629 852.524 869.22 855.474 883.66 853.884C898.1 852.294 902.48 846.904 902.92 844.764C903.32 842.854 896.18 842.184 888.53 841.304L888.459 841.454C888.459 841.454 879.8 847.594 867.78 847.874C857.98 848.114 847.609 845.294 840.839 845.404C840.689 847.644 840.539 849.934 840.989 852.184C842.259 858.554 851.349 857.494 861.489 855.024L861.479 855.004Z" fill="#233862"/>
<path d="M765.121 725.494L746.591 775.304L722.401 840.344C722.401 840.344 715.841 840.974 709.561 839.164C703.781 837.494 697.141 833.114 697.141 833.114C697.141 833.114 703.881 763.264 716.411 723.174C719.621 712.884 723.221 704.564 727.191 699.874C746.611 676.944 765.121 725.474 765.121 725.474V725.494Z" fill="#233862"/>
<path d="M746.329 646.365C735.789 642.965 708.289 646.295 678.459 651.685C670.219 653.175 661.909 649.405 657.569 642.245L582.509 636.354C582.509 636.354 557.719 691.275 571.269 726.285C573.259 731.435 577.629 734.645 584.389 734.755C584.389 734.755 629.749 734.835 644.259 734.835C681.589 734.845 723.269 709.205 728.659 708.125C737.479 706.365 741.009 724.014 749.829 742.544C758.649 761.074 832.749 824.635 832.749 824.635C832.749 824.635 844.139 824.754 848.849 822.984C853.909 821.084 855.759 818.625 855.759 818.625C855.759 818.625 773.689 655.194 746.329 646.354V646.365Z" fill="#2A4E96"/>
<path d="M649.669 421.814C644.099 418.494 638.659 417.984 635.329 418.074C633.009 418.144 630.699 417.985 628.409 417.655C599.759 413.445 582.499 455.054 581.479 467.624C579.619 490.704 567.399 494.224 550.209 508.674C515.729 537.654 525.829 571.334 544.669 583.864C555.979 591.374 575.909 583.864 575.909 583.864C576.189 584.064 630.429 553.574 657.159 538.864C697.229 533.184 665.759 431.394 649.669 421.804V421.814Z" fill="#233862"/>
<path d="M634.769 526.334C634.889 526.414 621.619 530.934 612.749 527.004C604.399 523.314 598.089 509.574 598.209 509.574C602.009 509.404 606.179 506.084 609.389 484.304L611.009 484.884L638.189 494.674C638.189 494.674 636.219 503.394 634.939 511.704C633.859 518.674 633.289 525.354 634.769 526.344V526.334Z" fill="#FFB27D"/>
<path d="M638.19 494.674C638.19 494.674 637.1 499.384 635.52 508.174C619.91 505.354 613.21 493.325 611.01 484.885L638.19 494.674Z" fill="#ED975D"/>
<path d="M642.23 503.334C642.23 503.334 605.04 498.324 608.51 475.214C611.98 452.104 609.52 435.884 633.42 438.104C657.31 440.324 660.59 449.834 661.31 457.834C662.03 465.834 652 504.044 642.24 503.334H642.23Z" fill="#FFB27D"/>
<path d="M659.959 445.155C659.959 445.155 636.139 465.665 619.949 467.315C603.749 468.965 597.619 463.765 597.619 463.765C597.619 463.765 607.169 455.845 612.919 443.055C614.609 439.285 618.189 436.695 622.309 436.345C633.869 435.355 655.799 434.905 659.959 445.155V445.155Z" fill="#233862"/>
<path d="M645.07 443.314C645.07 443.314 653.03 451.014 655.54 456.734C657.96 462.244 658.68 475.434 656.75 480.664C656.75 480.664 669.17 456.534 662.15 444.814C654.7 432.374 645.07 443.314 645.07 443.314V443.314Z" fill="#233862"/>
<path d="M666.07 581.144C664.92 656.434 665.74 640.704 657.5 647.844C655.51 649.564 649.94 650.584 642.59 651.074C619.5 652.594 578.92 648.784 577.38 644.514C572.06 629.744 575.82 625.164 571.39 602.564C570.93 600.164 570.36 597.554 569.68 594.724C565.98 579.204 562.38 573.914 575.53 548.984C587.46 526.394 599.84 508.064 600.96 508.724C632.4 527.404 634.94 511.714 634.94 511.714C634.94 511.714 666.64 544.424 666.07 581.154V581.144Z" fill="#F99746"/>
<path d="M746.591 775.304L722.401 840.344C722.401 840.344 715.841 840.974 709.561 839.164C703.781 837.494 697.141 833.114 697.141 833.114C697.141 833.114 703.881 763.264 716.411 723.174L746.591 775.294V775.304Z" fill="#2A4E96"/>
<path d="M634.939 511.694C634.939 511.694 667.289 517.194 671.089 531.124C674.879 545.054 687.359 629.614 687.359 629.614C687.359 629.614 678.229 638.524 670.639 630.924C663.039 623.324 646.749 551.804 646.749 551.804L634.939 511.704V511.694Z" fill="#F99746"/>
<path d="M642.6 651.065C619.51 652.585 578.93 648.775 577.39 644.505C572.07 629.735 575.83 625.155 571.4 602.555L582.55 571.205C582.55 571.205 580.7 606.125 590.99 615.305C601.27 624.495 633.14 633.045 638.15 640.725C640.56 644.405 642.15 648.105 642.61 651.065H642.6Z" fill="#ED7D2B"/>
<path d="M616.151 636.375C616.151 636.375 638.931 631.315 642.601 633.335C646.271 635.355 655.251 642.725 656.381 645.285C657.501 647.845 648.201 643.335 645.171 642.525C643.211 641.995 638.051 643.785 635.491 644.645C624.741 648.225 618.151 646.375 618.151 646.375L616.141 636.375H616.151Z" fill="#FFB27D"/>
<path d="M600.94 508.694C600.94 508.694 570.36 510.564 559.76 525.334C544.85 546.114 515.25 634.694 532.19 646.514C551.27 659.824 619.03 650.024 619.03 650.024C619.03 650.024 621.29 639.484 618.15 634.384C615.01 629.284 564.03 621.034 561.68 618.674C559.33 616.324 591.11 572.794 591.11 565.734C591.11 558.674 600.92 508.694 600.92 508.694H600.94Z" fill="#F99746"/>
<path d="M643.699 639.675C643.699 639.675 648.469 645.835 650.029 646.565C651.589 647.305 652.609 647.115 652.609 647.115L649.399 641.325L643.699 639.665V639.675Z" fill="#FFB27D"/>
<path d="M642.6 633.334L656.47 640.074C656.47 640.074 655.88 641.044 654.17 640.964C652.46 640.884 648.15 639.304 648.15 639.304L642.59 633.334H642.6Z" fill="#FFB27D"/>
<path d="M761.081 649.215L616.141 649.165V652.365L759.791 652.415L761.081 649.215Z" fill="#233862"/>
<path d="M650.029 652.374L759.789 652.414L792.839 570.314L683.249 570.274L650.029 652.374Z" fill="#233862"/>
<path d="M732.099 611.345C732.929 608.455 731.259 606.115 728.369 606.115C725.479 606.115 722.469 608.455 721.639 611.335C720.809 614.225 722.479 616.565 725.369 616.565C728.259 616.565 731.269 614.225 732.099 611.345Z" fill="white"/>
<path d="M2.90002 1688.59H2321.24C2322.84 1688.59 2324.14 1689.89 2324.14 1691.49V1693.16C2324.14 1694.76 2322.84 1696.06 2321.24 1696.06H2.90002C1.30002 1696.06 0 1694.76 0 1693.16V1691.49C0 1689.89 1.30002 1688.59 2.90002 1688.59Z" fill="#D9D9D9"/>
</svg>
