<svg width="1641" height="1695" viewBox="0 0 1641 1695" fill="none" xmlns="http://www.w3.org/2000/svg">
<g clip-path="url(#clip0_500_274)">
<path opacity="0.5" d="M386.28 1695.05C492.366 1695.05 578.365 1645.39 578.365 1584.13C578.365 1522.87 492.366 1473.21 386.28 1473.21C280.195 1473.21 194.195 1522.87 194.195 1584.13C194.195 1645.39 280.195 1695.05 386.28 1695.05Z" fill="#A8D29F"/>
<g opacity="0.7">
<path d="M1499.07 883.049C1353.63 643.241 1159 435.356 945.328 311.989C729.923 187.594 533.671 171.361 387.849 245.436L307.336 291.211L360.687 355.438L403.703 358.739C422.966 379.408 446.07 389.093 462.194 380.869C473.341 375.188 484.974 370.318 496.824 365.881L815.306 390.23L1187.84 685.445L1420.02 1020.65L1500.48 974.871C1522.39 962.21 1521.69 920.492 1499.02 883.049H1499.07Z" fill="url(#paint0_linear_500_274)"/>
<path d="M945.328 564.621C790.145 475.018 648.598 462.194 542.437 513.435L461.924 559.21L530.966 580.583C533.563 588.158 536.81 595.842 541.139 603.417L541.247 603.633C561.7 639.128 594.922 659.69 616.241 649.355C637.884 638.858 661.313 631.607 686.311 627.82L889.489 688.638L1167.34 968.054L1265.27 1110.09L1345.78 1064.31H1345.89C1367.81 1051.54 1367.32 1009.66 1344.32 972.382C1238.6 801.183 1098.62 653.143 945.328 564.675V564.621Z" fill="url(#paint1_linear_500_274)"/>
<path d="M963.724 828.4C958.043 824.612 952.362 821.203 946.572 817.848L945.382 817.145C851.179 762.766 764.93 753.081 698.755 781.109C697.024 781.812 695.455 782.786 693.994 783.814L618.242 826.885L671.755 868.494L696.375 871.957C716.882 907.236 749.239 926.39 771.153 917.354C784.626 911.781 799.235 908.48 814.818 907.398L955.879 990.238L1110.36 1199.42L1190.87 1153.65C1213.49 1140.61 1212.08 1096.78 1187.57 1058.9C1126.37 964.266 1048.67 882.021 963.724 828.291V828.4Z" fill="url(#paint2_linear_500_274)"/>
<path d="M945.329 1069.72C897.443 1042.07 854.535 1041.8 825.533 1063.72L766.176 1098.29L774.292 1157.27L787.711 1179.67C792.256 1236.32 816.984 1297.74 853.236 1348.65C877.369 1382.58 906.641 1411.63 938.295 1431.55L975.413 1493.66L1052.25 1449.67C1083.95 1434.58 1103.92 1398 1103.92 1344.38C1103.92 1304.72 1092.99 1261.65 1074.38 1221.01C1045.59 1157.92 998.571 1100.46 945.329 1069.72V1069.72Z" fill="url(#paint3_linear_500_274)"/>
<path d="M1110.31 1199.53C1090.18 1211.11 1058.2 1193.85 1036.39 1160.19C993.215 1093.53 938.403 1035.63 878.559 997.597C873.96 994.675 869.361 991.915 864.761 989.264C798.316 950.901 737.444 943.867 690.586 963.184C668.564 972.274 636.045 952.957 615.538 917.462C593.245 878.829 594.273 837.003 618.135 826.939C684.31 798.911 770.559 808.596 864.761 862.975L865.952 863.678C871.741 867.033 877.423 870.442 883.104 874.229C968.054 927.959 1045.75 1010.15 1106.95 1104.84C1131.41 1142.72 1132.87 1186.54 1110.25 1199.58L1110.31 1199.53Z" fill="#059879"/>
<path d="M1265.43 1109.98H1265.33C1244.98 1121.83 1212.03 1104.41 1190.66 1069.78C1104.41 929.853 990.077 809.029 864.816 736.686C737.985 663.477 622.356 652.98 535.782 695.077C514.464 705.411 481.295 684.85 460.788 649.355L460.68 649.139C438.874 611.317 439.199 570.194 461.924 559.21C568.085 507.916 709.633 520.793 864.816 610.397C1018.1 698.918 1158.08 846.905 1263.81 1018.1C1286.86 1055.38 1287.29 1097.26 1265.38 1109.98H1265.43Z" fill="#059879"/>
<path d="M1420.08 1020.65C1399.46 1032.6 1366.08 1014.42 1344.76 979.146C1218.85 771.261 1050.08 591.026 864.923 484.108C678.141 376.27 508.132 362.31 381.789 426.699C360.47 437.575 326.923 417.23 306.199 381.356C284.394 343.48 284.989 302.737 307.444 291.32C453.266 217.245 649.517 233.478 864.923 357.873C1078.6 481.24 1273.23 689.071 1418.67 928.933C1441.39 966.376 1442.04 1008.09 1420.13 1020.76L1420.08 1020.65Z" fill="#059879"/>
<path d="M1265.43 1109.98H1265.33C1244.98 1121.83 1212.03 1104.41 1190.66 1069.78C1104.41 929.853 990.077 809.029 864.816 736.686C737.985 663.477 622.356 652.98 535.782 695.077C514.464 705.411 481.295 684.85 460.788 649.355L460.68 649.139C438.874 611.317 439.199 570.194 461.924 559.21C568.085 507.916 709.633 520.793 864.816 610.397C1018.1 698.918 1158.08 846.905 1263.81 1018.1C1286.86 1055.38 1287.29 1097.26 1265.38 1109.98H1265.43Z" fill="#059879"/>
<path d="M1110.31 1199.53C1090.18 1211.11 1058.2 1193.85 1036.39 1160.19C993.215 1093.53 938.403 1035.63 878.559 997.597C873.96 994.675 869.361 991.915 864.761 989.264C798.316 950.901 737.444 943.867 690.586 963.184C668.564 972.274 636.045 952.957 615.538 917.462C593.245 878.829 594.273 837.003 618.135 826.939C684.31 798.911 770.559 808.596 864.761 862.975L865.952 863.678C871.741 867.033 877.423 870.442 883.104 874.229C968.054 927.959 1045.75 1010.15 1106.95 1104.84C1131.41 1142.72 1132.87 1186.54 1110.25 1199.58L1110.31 1199.53Z" fill="#059879"/>
<path d="M1265.43 1109.98H1265.33C1244.98 1121.83 1212.03 1104.41 1190.66 1069.78C1104.41 929.853 990.077 809.029 864.816 736.686C737.985 663.477 622.356 652.98 535.782 695.077C514.464 705.411 481.295 684.85 460.788 649.355L460.68 649.139C438.874 611.317 439.199 570.194 461.924 559.21C568.085 507.916 709.633 520.793 864.816 610.397C1018.1 698.918 1158.08 846.905 1263.81 1018.1C1286.86 1055.38 1287.29 1097.26 1265.38 1109.98H1265.43Z" fill="#059879"/>
<path d="M1110.31 1199.53C1090.18 1211.11 1058.2 1193.85 1036.39 1160.19C993.215 1093.53 938.403 1035.63 878.559 997.597C873.96 994.675 869.361 991.915 864.761 989.264C798.316 950.901 737.444 943.867 690.586 963.184C668.564 972.274 636.045 952.957 615.538 917.462C593.245 878.829 594.273 837.003 618.135 826.939C684.31 798.911 770.559 808.596 864.761 862.975L865.952 863.678C871.741 867.033 877.423 870.442 883.104 874.229C968.054 927.959 1045.75 1010.15 1106.95 1104.84C1131.41 1142.72 1132.87 1186.54 1110.25 1199.58L1110.31 1199.53Z" fill="#059879"/>
<path d="M1110.31 1199.53C1090.18 1211.11 1058.2 1193.85 1036.39 1160.19C993.215 1093.53 938.403 1035.63 878.559 997.597C873.96 994.675 869.361 991.915 864.761 989.264C798.316 950.901 737.444 943.867 690.586 963.184C668.564 972.274 636.045 952.957 615.538 917.462C593.245 878.829 594.273 837.003 618.135 826.939C684.31 798.911 770.559 808.596 864.761 862.975L865.952 863.678C871.741 867.033 877.423 870.442 883.104 874.229C968.054 927.959 1045.75 1010.15 1106.95 1104.84C1131.41 1142.72 1132.87 1186.54 1110.25 1199.58L1110.31 1199.53Z" fill="#059879"/>
<path d="M1110.31 1199.53C1090.18 1211.11 1058.2 1193.85 1036.39 1160.19C993.215 1093.53 938.403 1035.63 878.559 997.597C873.96 994.675 869.361 991.915 864.761 989.264C798.316 950.901 737.444 943.867 690.586 963.184C668.564 972.274 636.045 952.957 615.538 917.462C593.245 878.829 594.273 837.003 618.135 826.939C684.31 798.911 770.559 808.596 864.761 862.975L865.952 863.678C871.741 867.033 877.423 870.442 883.104 874.229C968.054 927.959 1045.75 1010.15 1106.95 1104.84C1131.41 1142.72 1132.87 1186.54 1110.25 1199.58L1110.31 1199.53Z" fill="#059879"/>
<path d="M993.863 1266.79C965.077 1203.7 918.057 1146.23 864.814 1115.5C809.786 1083.74 761.359 1088.12 733.006 1120.75C716.07 1140.12 706.223 1169.45 706.223 1207.05C706.223 1268.57 732.465 1337.99 772.722 1394.48C798.64 1430.9 830.456 1461.9 864.814 1481.76C897.388 1500.59 927.688 1506.7 952.957 1501.72C995.378 1493.5 1023.41 1453.73 1023.41 1390.21C1023.41 1350.55 1012.48 1307.48 993.863 1266.84V1266.79Z" fill="#059879"/>
</g>
<path d="M776.023 538.271C773.804 538.271 772.181 539.569 771.207 540.651C769.043 539.136 766.013 540.489 765.796 543.519C765.363 549.741 765.58 551.689 761.738 560.996C752.323 583.289 747.453 579.339 736.956 603.417L736.686 604.066L737.01 603.417C734.684 608.72 732.519 616.511 732.844 615.429C730.193 624.357 731.167 627.712 734.359 630.092C739.554 633.934 751.998 627.766 757.247 623.816C777.971 608.179 782.299 601.577 781.542 602.335C783.49 599.792 783.868 599.142 784.896 596.816C793.229 578.094 791.227 573.116 787.494 559.535C783.977 546.711 784.896 546.82 783.327 543.357C781.92 540.327 778.999 538.271 775.969 538.271" fill="#9E90F2"/>
<path d="M739.77 500.016C736.577 500.016 728.136 503.316 725.918 509.593C725.269 510.08 724.836 510.891 724.836 511.703C724.836 513.056 724.836 513.705 724.836 513.705C724.024 518.142 723.97 522.958 723.591 529.342C719.966 543.573 703.896 557.695 697.673 572.304L697.782 572.088C689.611 590.539 695.78 604.499 736.144 570.357L735.225 571.006C737.876 569.004 740.203 567.056 743.99 563.377C756.597 551.148 761.792 546.008 754.325 530.208C746.696 513.976 751.241 505.697 743.611 501.098C742.529 500.448 741.068 500.07 739.661 500.07" fill="#9E90F2"/>
<path d="M892.355 302.303C884.726 302.303 882.02 305.225 877.042 310.366C875.257 312.259 871.415 315.235 874.121 319.726C842.684 342.885 813.519 372.212 808.649 379.354C798.044 394.883 776.022 450.939 762.657 510.026C755.894 539.948 752.864 545.575 751.89 554.882C751.24 560.617 754.757 566.244 759.627 568.409C765.579 571.06 769.204 571.222 781.054 571.168C784.95 571.168 787.655 571.385 790.686 566.948C795.718 559.589 797.233 536.376 800.371 526.312C807.513 503.154 830.78 467.496 836.028 443.905C841.547 419.015 836.028 417.067 857.888 404.947C863.84 401.646 865.355 400.727 869.197 397.967C878.503 391.312 904.259 378.488 911.942 372.969C922.385 365.448 934.939 358.684 930.61 339.584C928.337 329.574 925.902 328.492 920.87 323.622C914.377 317.4 913.999 318.644 911.077 313.612C907.884 308.039 905.017 304.576 897.225 302.899C895.656 302.574 894.033 302.358 892.409 302.358" fill="#3B2B72"/>
<path d="M834.244 283.312C826.994 283.312 820.771 288.398 801.995 298.732C783.707 308.797 787.007 309.229 769.152 320.755C730.843 345.428 723.538 354.518 719.101 362.959C709.795 380.598 709.308 388.228 708.713 396.398C708.604 398.075 707.576 458.406 714.286 499.799C717.911 521.984 716.612 522.146 723.484 524.581C725.757 525.393 731.005 525.988 729.815 525.825C735.875 526.691 739.771 527.124 747.238 523.553C752.811 520.847 753.785 519.441 756.977 482.593C761.089 436.005 765.418 425.346 761.685 413.821C759.196 406.246 754.921 399.861 758.33 388.336C759.466 386.334 762.334 383.412 764.066 381.843C776.889 370.101 783.058 370.21 789.334 366.206C793.825 363.338 802.482 356.899 803.186 356.25L803.348 356.141L803.511 355.979L816.442 346.889C855.455 319.185 863.896 323.893 864.545 311.664C864.707 308.634 863.192 306.74 860.108 301.384C855.13 292.726 853.831 294.133 849.719 291.32C841.982 284.881 838.627 283.366 834.352 283.366" fill="#3B2B72"/>
<path d="M999.328 256.366C999.058 250.684 995.919 223.035 995.919 223.035C995.919 223.035 995.757 221.844 995.595 220.654C995.432 219.464 995.27 218.273 995.27 218.273V218.49V218.057V217.949V217.678C991.861 160.377 980.444 166.816 953.174 144.632C945.49 138.355 938.727 136.678 931.584 131.862C918.003 122.718 907.398 142.684 902.961 124.503C904.368 121.96 903.719 118.768 900.147 116.82C898.849 116.117 896.468 114.331 895.278 113.411C891.707 110.706 891.869 111.247 886.512 108.812C883.32 107.351 881.21 106.377 877.26 105.89C876.34 105.782 875.42 105.728 874.554 105.728C864.328 105.728 854.101 113.141 847.716 121.257C838.193 133.323 837.76 139.275 825.424 160.702C813.845 180.884 815.305 180.993 810.76 192.626C808.055 199.66 808.758 202.149 810.598 204.259C811.464 205.287 812.546 206.207 813.628 207.56C822.826 218.977 831.592 222.602 837.057 224.766C838.788 225.47 840.195 226.011 841.169 226.552C842.197 232.341 826.289 267.782 822.556 277.36C820.121 283.636 816.063 289.642 813.79 296.568C813.79 296.622 813.79 296.676 813.79 296.73C813.087 298.949 812.546 301.221 812.329 303.656V303.71C812.059 306.416 812.221 309.23 812.871 312.205C814.44 319.348 826.344 325.137 832.999 327.951C832.999 327.951 840.953 332.875 850.909 338.935C860.54 344.725 872.011 351.542 880.019 355.871C887.811 360.037 891.219 362.959 891.057 362.797C891.057 362.797 891.057 362.797 891.111 362.797C894.25 365.015 907.29 370.859 908.859 371.292C915.731 373.132 927.635 368.478 936.454 359.334C937.861 357.927 938.889 356.845 939.701 356.033C942.785 352.949 943.11 352.516 946.897 347.376C955.23 336.5 956.258 324.975 956.961 318.59C957.015 317.941 957.124 317.4 957.178 316.859L958.098 308.364C961.561 279.849 960.316 286.233 960.208 270.488C960.208 268.324 959.829 267.891 961.019 268.161C961.993 268.378 963.941 269.027 967.837 269.514C971.787 270.001 975.629 269.298 979.579 268.54C984.935 267.512 989.318 267.133 992.619 266.267C997.326 265.023 999.761 262.75 999.436 256.366H999.328Z" fill="#E1954D"/>
<path d="M935.426 58.978C933.1 58.978 931.747 60.1143 930.611 61.6293C926.12 67.6354 917.029 76.6174 913.729 79.3228C904.098 86.3028 889.542 88.6294 887.053 94.1485C885.917 96.8539 885.43 99.6134 887.919 102.319C889.542 108.866 891.544 115.575 892.518 122.393V122.285C892.843 124.882 893.6 135.812 893.546 138.463C893.33 145.01 891.923 145.768 893.817 149.285C897.659 156.644 918.815 156.265 926.877 154.155L930.719 153.127C933.37 152.856 936.671 153.181 938.348 148.473C938.889 145.497 938.565 144.74 937.807 140.574C934.831 123.583 936.454 115.197 937.266 109.515V109.624C942.298 74.6154 940.458 79.1064 940.837 68.5011C940.945 65.2005 941.649 59.2486 935.372 58.978" fill="#E27D26"/>
<path d="M836.95 224.712C833.162 230.123 830.565 232.828 825.479 250.143C820.663 266.646 823.585 260.369 818.661 277.197C816.443 284.881 814.874 291.157 813.683 296.514C813.683 296.568 813.683 296.622 813.683 296.676C813.142 299.165 812.655 301.438 812.222 303.602V303.656C810.329 313.071 809.192 319.51 805.946 326.977C796.26 350.352 784.465 352.895 781.597 347.538C777.809 340.504 780.028 319.835 782.841 313.829C782.841 313.829 784.356 310.744 785.168 308.959C786.791 304.901 792.419 284.772 794.258 274.059C794.258 274.059 795.449 269.406 797.18 259.071C798.533 250.846 798.262 252.091 798.749 249.872C799.669 245.381 800.914 236.778 800.914 236.778C801.13 235.263 801.401 232.233 801.563 230.339C802.537 219.193 806.27 211.185 810.545 204.259C811.411 205.287 812.493 206.207 813.575 207.56C822.773 218.977 831.539 222.602 837.004 224.766L836.95 224.712Z" fill="#EBA76C"/>
<path d="M891.22 22.8337C883.266 22.8337 873.689 27.4871 869.306 32.5733C858.268 45.4511 848.582 91.8761 876.827 129.103C879.586 132.89 885.647 148.149 903.394 133.864C905.342 132.295 913.134 125.099 912.755 125.477C930.015 109.84 936.508 82.2989 932.18 60.0062C928.879 42.908 921.088 34.954 911.077 28.6775C904.693 24.7275 897.605 22.8878 891.22 22.8878" fill="#F3CBA8"/>
<path d="M903.935 -9.08101e-05C898.849 -9.08101e-05 894.953 0.432777 879.153 8.81958C873.905 11.5791 857.564 18.8296 855.833 31.1122C855.724 31.7615 855.021 36.6854 854.696 37.2265C853.831 38.7415 854.588 44.1524 858.105 47.0201C859.728 48.3187 861.189 49.9961 863.678 51.2406C865.735 52.3227 873.905 53.3508 872.336 53.1344C889.326 55.7857 893.654 45.8838 904.26 46.9119C905.558 47.1283 907.777 47.6694 908.859 48.3728C914.107 53.0803 916.434 59.3027 917.246 60.8719C928.067 87.6014 910.158 125.153 922.981 125.153C930.394 125.153 940.621 109.894 944.679 103.726C955.338 87.4391 963.076 53.0262 951.55 30.3547C941.108 9.73943 935.102 7.52098 915.731 1.29851C912.647 0.32456 907.723 0.0540176 904.693 -0.0541992C904.422 -0.0541992 904.152 -0.0541992 903.881 -0.0541992" fill="#27385F"/>
<path d="M921.683 77.9702C919.681 78.1866 918.058 79.6475 916.705 81.2708C914.811 83.5433 913.621 85.2748 913.134 87.2227C912.593 89.387 911.781 92.1466 912.538 93.5534C913.729 95.8259 914.649 93.9862 913.891 96.2588C909.617 102.319 916.597 107.622 921.521 104.591C928.068 100.587 931.747 87.3309 930.557 83.7056C929.042 79.2146 925.579 77.5373 921.737 77.9702M930.665 87.2768C930.557 88.0343 930.503 88.1425 930.665 87.2768Z" fill="#EBA76C"/>
<path d="M697.891 339.747L796.422 288.452L919.14 349.378H930.611V355.113H930.503L832.566 408.573L697.891 339.747Z" fill="#3B2B72"/>
<path d="M832.566 403.162L930.611 349.594L796.422 283.041L697.891 334.282L832.566 403.162Z" fill="#9E90F2"/>
<path d="M645.676 242.676L649.95 239.43L784.085 308.418L837.328 405.975L832.566 408.573L821.42 400.456L824.666 399.104L702.219 336.5L656.281 251.171L654.441 253.119L645.676 242.676Z" fill="#6456BF"/>
<path d="M832.566 408.573L779.811 311.61L645.676 242.676L697.89 339.747L832.566 408.573Z" fill="#9E90F2"/>
<path d="M804.321 327.68L831.971 343.642C835.109 345.428 839.816 345.644 842.468 344.075L862.109 332.767C864.815 331.197 864.49 328.492 861.352 326.707L833.702 310.745C830.564 308.959 825.857 308.742 823.205 310.312L803.564 321.62C800.858 323.189 801.183 325.895 804.321 327.68V327.68Z" fill="#6456BF"/>
<path d="M939.593 356.087C938.457 356.142 937.267 356.25 936.076 356.304C933.75 356.466 917.571 355.979 896.794 361.444C894.575 362.039 892.627 362.472 891.058 362.851C883.591 364.474 882.184 363.825 879.641 363.392C869.361 362.526 864.22 365.773 862.11 366.584H862.272C854.589 369.885 850.206 369.506 843.767 371.941C840.142 373.564 837.491 375.621 833.595 375.512C828.563 375.242 822.827 372.212 824.397 367.883C825.046 366.206 831.539 352.029 839.493 345.59C841.874 343.697 846.202 340.991 850.856 338.881C855.022 336.987 859.405 335.58 862.922 335.526C863.192 335.526 866.709 335.31 871.2 336.013C887.866 337.907 880.236 337.582 922.874 329.087C936.563 326.328 949.82 321.729 956.962 318.59C960.155 317.183 962.157 316.101 962.427 315.56C962.427 315.56 962.535 313.775 962.427 308.688C962.102 292.023 961.507 278.658 961.074 268.107C962.048 268.324 963.996 268.973 967.892 269.46C971.842 269.947 975.684 269.243 979.634 268.486C984.99 267.458 989.373 267.079 992.674 266.213C992.566 269.189 992.511 272.49 992.511 276.115C992.133 337.961 998.68 352.3 939.756 356.087H939.593Z" fill="#EBA76C"/>
<path d="M297.326 1076C299.166 1075.73 301.005 1075.4 302.845 1075.08C317.671 1072.21 332.767 1070.16 346.835 1064.2C353.112 1061.55 359.118 1058.14 365.611 1056.03C372.104 1053.87 379.354 1053.11 385.685 1055.65C379.841 1060.25 372.861 1063.28 365.503 1064.42C381.573 1064.15 397.589 1062.8 413.497 1060.31C414.308 1061.5 413.821 1063.12 413.226 1064.42C410.25 1070.91 406.03 1076.86 400.835 1081.79C398.346 1084.17 395.587 1086.33 392.394 1087.58C388.932 1088.93 385.144 1089.09 381.465 1088.99C371.13 1088.71 359.28 1084.49 349.649 1088.12C345.05 1089.85 342.236 1089.69 334.499 1093.91C322.919 1100.24 311.286 1106.52 299.653 1112.79C286.558 1119.83 255.663 1136.33 239.755 1129.73C230.935 1126.05 226.552 1120.48 227.634 1111.01C228.717 1101.48 236.941 1096.34 245.436 1091.91C258.152 1085.2 283.42 1078.06 297.326 1076V1076Z" fill="#EBA76C"/>
<path d="M287.155 950.738C288.291 955.554 288.075 960.532 287.804 965.456C285.369 1013.45 280.121 1061.88 263.293 1107.6C261.507 1112.52 259.451 1117.55 255.772 1121.56C252.093 1125.56 246.357 1128.43 240.676 1127.62C235.048 1126.86 230.612 1122.64 228.447 1117.88C226.283 1113.12 226.012 1107.87 225.85 1102.73C224.443 1058.52 228.88 1013.99 241.325 971.137C244.247 961.073 247.98 950.576 256.692 943.704C261.507 939.863 269.624 936.345 276.225 937.698C282.501 938.997 285.856 945.436 287.101 950.792L287.155 950.738Z" fill="#EBA76C"/>
<path d="M255.447 1129.57C257.774 1128.54 260.208 1128.05 262.589 1128.16C261.778 1123.61 260.695 1119.23 260.695 1114.58C260.695 1109.28 263.78 1104.24 265.349 1099.32C268.595 1089.15 269.677 1079.08 271.896 1068.53C272.87 1063.99 273.681 1059.71 273.681 1055.01C273.681 1050.19 274.709 1041.53 272.383 1037.26C270.11 1033.09 262.697 1034.44 258.423 1035.91C258.423 1035.91 258.477 1036.01 258.531 1036.01C258.531 1036.07 258.477 1036.23 258.423 1036.39C262.048 1045.54 261.561 1059.71 261.074 1069.67C260.479 1082.71 256.854 1094.99 253.715 1107.6C252.363 1113.12 249.549 1119.29 249.387 1124.91C251.93 1124.05 253.878 1126 255.339 1129.57H255.447Z" fill="#E27D26"/>
<path d="M445.963 1044.29C446.558 1042.51 447.099 1040.72 447.586 1038.94C451.698 1024.38 456.622 1009.99 457.596 994.783C458.029 987.965 457.704 981.093 458.678 974.33C459.652 967.566 462.195 960.748 467.336 956.203C468.797 963.454 468.418 971.083 466.145 978.171C473.125 963.67 479.077 948.736 484.001 933.424C485.408 933.207 486.652 934.398 487.572 935.534C492.063 941.107 495.472 947.546 497.582 954.364C498.61 957.664 499.314 961.073 498.989 964.536C498.664 968.215 497.095 971.678 495.364 974.925C490.494 984.015 481.404 992.726 480.322 1002.95C479.835 1007.82 478.374 1010.26 478.698 1019.08C479.185 1032.28 479.564 1045.48 479.943 1058.68C480.376 1073.56 481.241 1108.57 468.201 1119.83C460.951 1126.05 454.025 1127.46 446.017 1122.26C437.955 1117.01 437.089 1107.38 436.927 1097.75C436.656 1083.41 441.58 1057.6 445.963 1044.24V1044.29Z" fill="#EBA76C"/>
<path d="M294.134 959.558C295.433 965.618 295.433 971.84 295.433 978.063C295.433 982.933 295.433 987.857 295.433 992.726C295.433 997.163 295.433 1001.6 295.054 1006.04C294.675 1010.37 293.918 1014.69 293.16 1018.97C291.861 1026.33 290.563 1033.69 289.264 1041.05C262.318 1042.88 234.885 1035.53 212.484 1020.43C215.19 1008.9 218.707 997.596 222.981 986.612C227.202 975.845 232.234 965.185 239.917 956.528C247.438 948.033 259.234 940.836 270.434 938.347C282.825 935.588 291.916 949.223 294.08 959.558H294.134Z" fill="#E1954D"/>
<path d="M371.618 886.566C369.183 891.976 365.503 897.712 359.66 898.902C357.766 899.281 352.734 898.902 347.377 898.145C346.078 897.982 344.78 897.766 343.481 897.55C338.07 896.63 333.092 895.385 331.523 894.303C327.952 891.814 321.676 881.425 321.08 879.964C320.918 879.586 320.756 879.153 320.485 878.72C320.052 877.8 319.457 876.772 318.808 875.636C316.86 872.227 314.533 868.169 314.533 865.626C314.533 847.391 322.271 842.575 329.034 833.648C335.852 824.72 345.646 818.497 356.251 814.764C361.986 812.762 368.912 811.193 374.864 812.924C380.221 814.493 379.517 818.335 379.788 823.151C381.032 844.902 380.491 866.383 371.563 886.566H371.618Z" fill="#EBA76C"/>
<path d="M355.439 927.85C342.183 942.135 321.081 948.52 302.143 943.975C296.732 942.676 291.483 940.566 285.91 940.349C293.594 935.371 297.489 926.227 299.221 917.245C301.169 907.235 300.952 896.738 298.247 886.89C297.706 884.942 293.215 876.447 295.271 874.878C297.056 873.58 306.904 877.854 309.772 877.8C312.91 877.746 315.886 876.772 318.808 875.582C319.295 875.365 319.782 875.149 320.269 874.932C323.515 873.471 326.708 871.74 330.063 870.658C330.766 870.441 331.524 870.225 332.227 870.441C332.822 870.604 333.309 871.036 333.796 871.469C338.125 875.419 342.508 879.315 346.89 883.265C345.429 887.594 344.347 891.976 343.59 896.467C343.536 896.846 343.482 897.171 343.427 897.55C342.778 901.824 342.453 906.099 342.508 910.427C342.508 911.672 342.508 912.916 342.67 914.107C342.832 915.676 343.103 917.245 343.644 918.706C345.429 923.576 350.137 927.309 355.331 927.85H355.439Z" fill="#EBA76C"/>
<path d="M343.535 897.55C342.886 901.824 342.561 906.099 342.615 910.427C342.615 911.672 342.615 912.916 342.777 914.107C341.533 913.403 340.397 911.997 339.477 911.185C337.529 909.453 335.743 907.668 333.958 905.774C328.547 899.822 325.354 892.355 322.541 884.996C321.837 883.049 320.972 880.938 320.593 878.774C320.322 877.53 320.268 876.285 320.376 875.041C325.192 880.127 328.98 885.862 334.391 890.461C337.15 892.842 340.451 894.844 343.697 896.576C344.022 896.738 344.347 896.9 344.671 897.063C345.537 897.495 346.511 897.82 347.431 898.199C346.132 898.037 344.833 897.82 343.535 897.604V897.55Z" fill="#E27D26"/>
<path d="M329.305 892.193C332.822 889.271 336.285 886.133 338.99 882.453C345.538 873.525 347.377 862 352.842 852.423C356.359 846.255 361.391 840.898 367.397 837.056C372.375 833.864 378.003 831.591 382.439 827.696C389.203 821.69 392.287 812.383 392.287 803.347C392.287 794.311 389.419 785.545 385.794 777.267C382.385 781.054 376.974 782.353 371.942 783.056C357.928 784.95 343.698 783.706 329.63 785.004C315.561 786.303 300.898 790.74 291.754 801.507C282.014 812.87 280.337 828.94 280.066 843.928C279.904 851.503 280.066 859.079 281.527 866.491C283.475 876.123 287.804 885.267 294.026 892.896C304.361 905.558 318.159 901.554 329.359 892.193H329.305Z" fill="#27385F"/>
<path d="M356.197 849.123C355.06 847.283 353.6 845.552 351.652 844.686C349.704 843.766 347.161 843.874 345.646 845.389C344.455 846.58 344.076 848.365 344.239 849.988C344.401 851.666 345.05 853.235 345.7 854.75C347.918 860.107 350.245 865.572 353.924 870.063C354.574 870.82 355.493 871.686 356.467 871.361C357.062 871.199 357.441 870.658 357.766 870.171C357.766 868.818 359.66 866.383 360.038 864.922C360.58 862.92 360.742 860.81 360.58 858.754C360.471 858.754 360.796 859.133 360.363 859.079C358.307 856.698 358.091 851.99 356.251 849.069L356.197 849.123Z" fill="#EBA76C"/>
<path d="M274.385 1572.93C273.844 1576.93 273.303 1581.05 274.547 1584.89C277.036 1592.57 286.072 1596.52 294.134 1595.82C302.197 1595.12 309.447 1590.89 316.319 1586.67C327.627 1579.8 338.882 1572.77 348.567 1563.73C352.193 1560.32 355.71 1556.59 357.712 1552.05C359.714 1547.5 360.092 1541.98 357.603 1537.65C353.762 1530.94 344.509 1529.27 337.042 1531.21C329.575 1533.16 323.082 1537.71 316.048 1541.01C306.525 1545.44 300.898 1548.8 291.104 1552.59C279.417 1557.08 275.9 1561.19 274.331 1572.93H274.385Z" fill="#57A9F2"/>
<path d="M261.453 1200.02C259.397 1225.01 263.888 1249.96 267.513 1274.79C271.355 1300.87 274.277 1327.01 276.387 1353.3C277.036 1361.37 277.578 1369.54 276.766 1377.6C275.413 1390.64 270.489 1403.03 267.838 1415.85C263.347 1437.66 265.565 1460.22 267.73 1482.35C269.191 1497.02 270.652 1511.68 272.113 1526.34C273.519 1540.25 274.926 1554.26 279.147 1567.57C291.592 1572.12 298.517 1567.09 302.9 1562.81C305.173 1524.29 311.395 1486.03 321.405 1448.81C324.544 1437.12 328.061 1425.54 330.063 1413.64C332.335 1400.16 332.714 1386.47 333.634 1372.89C337.097 1320.89 348.676 1269.11 344.023 1217.22C342.237 1197.15 338.017 1177.4 333.796 1157.7C333.417 1155.92 332.985 1154.02 331.686 1152.72C330.225 1151.26 328.061 1150.89 326.059 1150.56C315.399 1148.94 304.74 1147.31 294.081 1145.69C287.642 1144.72 279.093 1141.58 273.952 1147.04C268.92 1152.4 267.892 1164.41 266.269 1171.34C264.05 1180.75 262.265 1190.33 261.453 1200.02V1200.02Z" fill="#6456BF"/>
<path d="M380.384 1594.09C379.68 1598.25 378.977 1602.64 380.113 1606.75C382.44 1615.14 392.017 1619.84 400.728 1619.46C409.44 1619.09 417.448 1614.92 425.131 1610.86C437.143 1604.48 449.155 1598.09 460.626 1590.73C467.282 1586.46 473.991 1581.48 477.346 1574.28C480.701 1567.09 479.348 1557.13 472.476 1553.18C465.009 1548.91 455.865 1553.29 447.857 1556.32C439.199 1559.62 430.055 1561.35 420.965 1563.08C411.766 1564.81 395.967 1564.65 387.905 1569.31C380.925 1573.36 381.682 1586.35 380.384 1594.03V1594.09Z" fill="#57A9F2"/>
<path d="M323.622 1246.28C328.871 1254.12 335.201 1261.27 340.179 1269.33C346.943 1280.31 351.001 1292.76 355.005 1305.04C365.935 1338.7 376.973 1373 377.514 1408.39C377.893 1433.17 373.131 1457.73 372.536 1482.52C372.103 1499.02 373.51 1515.47 374.917 1531.86C376.378 1548.69 377.785 1565.57 379.246 1582.4C392.935 1583.7 407.057 1580.78 419.124 1574.07C416.797 1532.35 421.234 1490.52 428.43 1449.4C431.893 1429.54 436.005 1409.74 437.791 1389.67C441.092 1352.82 436.492 1315.75 431.947 1279.01C426.266 1233.45 420.53 1187.41 404.623 1144.34C405.705 1147.26 328.113 1154.73 321.458 1155.43C296.73 1157.92 303.494 1187.73 307.173 1205.7C310.149 1220.09 315.56 1234 323.73 1246.28H323.622Z" fill="#6456BF"/>
<path d="M269.947 1040.29C267.35 1038.29 260.857 1038.88 257.556 1038.29C255.717 1037.91 253.282 1037.37 251.875 1036.01C249.711 1033.96 250.739 1031.52 251.28 1028.49C253.552 1016.05 253.552 1002.63 252.957 989.804C252.741 985.476 251.983 981.255 251.983 976.872C251.983 973.842 252.795 971.84 253.552 969.135C258.098 974.059 256.961 985.746 258.747 992.131C260.641 998.841 262.697 1005.55 263.995 1012.37C264.969 1017.29 264.32 1022.49 265.402 1027.46C265.997 1030.28 267.512 1037.31 269.893 1040.4L269.947 1040.29Z" fill="#D37C35"/>
<path d="M305.876 1351.52C308.365 1359.85 311.178 1368.18 312.369 1376.79C313.721 1386.74 312.856 1396.81 311.99 1406.82L309.014 1440.91C306.471 1470.29 304.306 1499.72 299.545 1528.78C297.651 1540.47 301.655 1549.88 302.845 1562.97C314.262 1525.96 319.511 1491.17 326.545 1453.08C334.499 1410.17 336.826 1366.45 339.152 1322.84C339.801 1310.23 340.505 1297.68 341.154 1285.07C341.479 1278.69 341.749 1271.93 338.611 1266.35C335.473 1260.83 329.575 1257.59 324.164 1254.18C310.204 1245.47 301.276 1232.86 289.048 1222.74C284.719 1228.53 288.723 1243.68 289.264 1250.66C290.184 1262.02 291.266 1273.39 292.673 1284.7C295.433 1307.26 299.437 1329.71 305.876 1351.52Z" fill="#3B2B72"/>
<path d="M435.466 1005.77L343.644 995.215C338.936 994.674 337.8 990.67 341.046 986.287L427.836 869.197C431.083 864.814 437.522 861.676 442.229 862.217L534.051 872.768C538.758 873.309 539.895 877.313 536.648 881.696L449.858 998.786C446.612 1003.17 440.173 1006.31 435.466 1005.77V1005.77Z" fill="#059879"/>
<path d="M352.679 983.582L433.95 874.012C435.789 871.523 439.469 869.738 442.12 870.063L523.553 879.423C526.205 879.748 526.854 882.021 525.014 884.455L443.743 994.025C441.904 996.514 438.224 998.299 435.573 997.975L354.14 988.614C351.488 988.289 350.785 986.017 352.679 983.582Z" fill="#059879"/>
<path d="M408.899 1067.99C409.71 1060.25 410.955 1052.52 410.901 1044.67C410.847 1030.6 406.68 1016.86 402.622 1003.39C397.157 985.259 391.638 967.133 386.173 948.953C384.171 942.297 382.115 935.642 378.76 929.528C369.941 931.043 360.742 930.448 352.193 927.85L353.438 928.716C341.588 938.726 325.842 943.975 310.367 943.217C310.367 943.217 310.367 943.163 310.367 943.109C308.69 942.297 305.822 942.568 303.712 941.594C301.872 940.782 299.87 939.646 298.139 938.564C295.487 936.887 292.349 933.153 293.756 929.852C288.778 933.478 285.207 934.668 279.093 934.993C274.764 935.209 269.461 935.534 266.052 938.51C260.155 943.542 256.962 951.279 255.664 958.963C255.555 959.341 255.393 959.666 255.285 960.045C253.391 966.646 253.932 973.68 254.581 980.498C255.934 994.837 257.666 1009.18 261.129 1023.14C263.293 1031.9 266.215 1040.45 267.838 1049.32C274.331 1085.04 259.722 1122.21 266.539 1157.87C270.868 1157.54 274.493 1160.95 277.902 1163.65C289.481 1172.85 304.794 1176.05 319.566 1176.42C334.337 1176.8 349.055 1174.58 363.826 1174.21C380.654 1173.77 399.43 1175.13 412.145 1164.03C408.195 1132.16 405.49 1099.92 408.953 1067.99H408.899Z" fill="#E1954D"/>
<path d="M376.595 941.919C371.942 939.159 365.611 941.81 362.635 946.301C359.605 950.738 359.118 956.42 359.01 961.776C358.361 994.079 367.938 1025.68 370.589 1057.87C371.13 1064.69 371.401 1071.62 369.669 1078.22C368.046 1084.6 364.637 1090.45 362.527 1096.67C358.361 1108.95 359.389 1122.42 361.661 1135.19C363.988 1147.96 367.559 1160.57 368.479 1173.5C384.441 1172.64 400.295 1169.39 415.283 1163.82C416.203 1163.49 417.231 1163.06 417.718 1162.19C418.205 1161.27 418.042 1160.19 417.826 1159.22C411.712 1128.86 412.036 1097.59 414.092 1066.69C414.633 1058.85 415.229 1051 414.633 1043.16C414.092 1035.96 412.523 1028.87 410.9 1021.78C407.058 1004.74 402.73 986.883 391.205 973.734C386.984 968.919 381.844 964.861 378.273 959.558C374.701 954.255 372.862 947.005 376 941.432C377.461 943.596 378.922 945.815 380.329 948.033" fill="#D37C35"/>
<path d="M442.769 1121.99C442.12 1121.67 441.417 1121.29 440.821 1120.91C436.439 1118.1 433.354 1113.82 430.433 1109.6C413.118 1084.6 398.022 1057.98 386.118 1029.9C380.707 1017.13 375.945 1004.09 371.941 990.724C368.911 980.714 366.368 969.839 369.939 959.342C371.941 953.498 376.811 946.139 383.088 943.704C389.094 941.378 395.37 945.003 399.32 948.79C402.891 952.199 405.38 956.528 407.869 960.748C431.948 1002.36 453.807 1045.86 464.575 1093.37C465.765 1098.51 466.739 1103.81 465.819 1109.17C464.9 1114.52 461.653 1120.04 456.459 1122.48C452.022 1124.53 446.99 1123.99 442.823 1122.05L442.769 1121.99Z" fill="#EBA76C"/>
<path d="M451.969 1121.4C448.939 1121.4 445.801 1122.15 442.771 1121.99C442.121 1121.67 441.418 1121.29 440.823 1120.91C436.44 1118.1 433.356 1113.82 430.434 1109.6C413.119 1084.6 398.023 1057.98 386.119 1029.9C388.825 1029.2 391.909 1028.28 393.748 1029.47C396.778 1031.47 397.644 1037.1 399.43 1040.02C403.758 1047.16 408.249 1053.33 411.28 1061.07C414.147 1068.42 416.961 1074.27 420.965 1081.03C425.077 1087.96 428.702 1096.02 433.843 1102.57C439.145 1109.33 445.909 1115.55 452.077 1121.34L451.969 1121.4Z" fill="#E27D26"/>
<path d="M402.297 937.049C406.95 941.107 410.684 946.139 414.417 951.063C417.339 954.959 420.261 958.908 423.237 962.804C425.888 966.375 428.54 969.892 430.92 973.68C433.247 977.414 435.195 981.309 437.197 985.205C440.606 991.861 443.96 998.516 447.369 1005.17C426.97 1022.81 400.566 1033.42 373.62 1034.77C368.858 1023.95 364.908 1012.8 361.716 1001.38C358.632 990.237 356.305 978.712 357.225 967.133C358.145 955.824 363.231 942.947 370.698 934.235C378.922 924.604 394.397 930.015 402.351 936.995L402.297 937.049Z" fill="#E1954D"/>
<path d="M344.4 914.486C345.158 915.243 344.725 914.973 344.184 914.486C344.238 914.486 344.346 914.486 344.4 914.486Z" fill="#E27D26"/>
<path d="M211.997 589.078C207.56 586.481 203.286 585.02 199.39 584.533C190.3 548.443 165.031 511.649 135.217 494.442C116.171 483.458 98.9648 482.647 86.6822 490.114L72.3976 498.338L75.4276 501.422C71.64 507.428 69.0969 515.058 68.0689 524.094C62.3334 515.761 55.137 508.673 47.3995 504.182C37.9305 498.717 29.3273 498.176 23.1048 501.801L9.90234 509.376L14.3933 514.03C13.5817 516.952 13.0947 520.252 13.0947 523.986C13.0947 549.471 31.0046 580.475 53.0809 593.244L101.995 621.489L168.602 659.96L206.424 681.766C210.158 683.93 213.783 685.391 217.192 686.257L221.466 692.155L234.615 684.634C241.919 680.467 246.464 671.485 246.464 658.661V648.435C246.464 626.521 231.098 599.9 212.105 588.97L211.997 589.078Z" fill="#008EB4"/>
<path d="M233.315 656.01V666.237C233.315 691.722 215.406 702.056 193.329 689.341L155.508 667.535L88.9001 629.064L39.9861 600.82C17.9099 588.05 0 557.046 0 531.561H0C0 509.647 15.3668 500.773 34.3588 511.757C42.0963 516.248 49.2928 523.336 55.0283 531.669C59.1946 495.471 87.6556 482.052 122.231 502.018C151.991 519.224 177.313 556.018 186.403 592.108C190.299 592.595 194.574 594.056 199.011 596.653C218.003 607.583 233.37 634.204 233.37 656.118L233.315 656.01Z" fill="#2AC6FF"/>
<path d="M1586.03 189C1578.88 184.888 1572.07 182.507 1565.84 181.75C1551.29 123.962 1510.82 65.092 1463.2 37.605C1432.68 20.0197 1405.2 18.7211 1385.5 30.7332H1385.45L1362.61 43.8815L1367.43 48.8054C1361.37 58.4367 1357.31 70.6652 1355.63 85.1122C1346.43 71.8015 1334.96 60.4387 1322.57 53.2423C1307.37 44.4767 1293.62 43.6651 1283.72 49.4006L1262.57 61.5209L1269.71 68.9879C1268.36 73.6953 1267.6 78.9979 1267.6 84.9498C1267.6 125.748 1296.22 175.365 1331.61 195.764L1409.9 240.944L1516.55 302.52L1577.04 337.474C1583.05 340.937 1588.79 343.263 1594.31 344.616L1601.12 354.085L1622.12 342.073C1633.8 335.418 1641.05 321.079 1641.05 300.572V284.177C1641.05 249.115 1616.44 206.531 1586.08 189H1586.03Z" fill="#008EB4"/>
<path d="M1620.11 296.135V312.53C1620.11 353.328 1591.49 369.885 1556.1 349.486L1495.61 314.532L1388.96 252.957L1310.67 207.776C1275.34 187.377 1246.66 137.76 1246.66 96.9622C1246.66 61.8999 1271.28 47.7235 1301.63 65.2547C1314.02 72.397 1325.49 83.7597 1334.69 97.1245C1341.29 39.1744 1386.96 17.6934 1442.26 49.6173C1489.93 77.1044 1530.4 136.028 1544.9 193.762C1551.13 194.52 1557.94 196.9 1565.09 201.013C1595.44 218.544 1620.06 261.127 1620.06 296.189L1620.11 296.135Z" fill="#2AC6FF"/>
<path d="M1605.4 1424.73C1600.96 1422.13 1596.69 1420.67 1592.79 1420.18C1583.7 1384.09 1558.43 1347.3 1528.62 1330.09C1509.57 1319.11 1492.37 1318.3 1480.08 1325.76L1465.8 1333.99L1468.83 1337.07C1465.04 1343.08 1462.5 1350.71 1461.47 1359.74C1455.73 1351.41 1448.54 1344.32 1440.8 1339.83C1431.33 1334.37 1422.73 1333.83 1416.51 1337.45L1403.3 1345.03L1407.79 1349.68C1406.98 1352.6 1406.5 1355.9 1406.5 1359.64C1406.5 1385.12 1424.4 1416.12 1446.48 1428.89L1495.4 1457.14L1562 1495.61L1599.82 1517.42C1603.56 1519.58 1607.18 1521.04 1610.59 1521.91L1614.87 1527.8L1628.01 1520.28C1635.32 1516.12 1639.86 1507.14 1639.86 1494.31V1484.08C1639.86 1462.17 1624.5 1435.55 1605.51 1424.62L1605.4 1424.73Z" fill="#008EB4"/>
<path d="M1626.72 1491.71V1501.94C1626.72 1527.43 1608.81 1537.76 1586.73 1525.04L1548.91 1503.24L1482.3 1464.77L1433.39 1436.52C1411.31 1423.75 1393.4 1392.75 1393.4 1367.26C1393.4 1345.35 1408.77 1336.48 1427.76 1347.46C1435.5 1351.95 1442.69 1359.04 1448.43 1367.37C1452.6 1331.17 1481.06 1317.76 1515.63 1337.72C1545.39 1354.93 1570.71 1391.72 1579.8 1427.81C1583.7 1428.3 1587.97 1429.76 1592.41 1432.36C1611.4 1443.29 1626.77 1469.91 1626.77 1491.82L1626.72 1491.71Z" fill="#2AC6FF"/>
<path opacity="0.5" d="M905.829 1679.31C992.281 1679.31 1062.36 1652.52 1062.36 1619.46C1062.36 1586.41 992.281 1559.62 905.829 1559.62C819.376 1559.62 749.293 1586.41 749.293 1619.46C749.293 1652.52 819.376 1679.31 905.829 1679.31Z" fill="#A8D29F"/>
</g>
<defs>
<linearGradient id="paint0_linear_500_274" x1="307.336" y1="610.884" x2="1516.55" y2="610.884" gradientUnits="userSpaceOnUse">
<stop stop-color="#AEC3FF"/>
<stop offset="1" stop-color="#3A7FD8"/>
</linearGradient>
<linearGradient id="paint1_linear_500_274" x1="461.924" y1="796.746" x2="1362.02" y2="796.746" gradientUnits="userSpaceOnUse">
<stop stop-color="#AEC3FF"/>
<stop offset="1" stop-color="#3A7FD8"/>
</linearGradient>
<linearGradient id="paint2_linear_500_274" x1="618.188" y1="982.663" x2="1206.89" y2="982.663" gradientUnits="userSpaceOnUse">
<stop stop-color="#AEC3FF"/>
<stop offset="1" stop-color="#3A7FD8"/>
</linearGradient>
<linearGradient id="paint3_linear_500_274" x1="766.23" y1="1270.9" x2="1103.92" y2="1270.9" gradientUnits="userSpaceOnUse">
<stop stop-color="#AEC3FF"/>
<stop offset="1" stop-color="#3A7FD8"/>
</linearGradient>
<clipPath id="clip0_500_274">
<rect width="1641" height="1695" fill="white"/>
</clipPath>
</defs>
</svg>
