<svg width="20" height="20" viewBox="0 0 20 20" fill="none" xmlns="http://www.w3.org/2000/svg">
<g clip-path="url(#clip0_38_367)">
<g clip-path="url(#clip1_38_367)">
<path d="M15.3033 13.47L10 18.7733L4.69667 13.47C3.64779 12.4211 2.93349 11.0847 2.64411 9.62988C2.35473 8.17502 2.50326 6.66703 3.07092 5.29659C3.63858 3.92615 4.59987 2.75481 5.83324 1.9307C7.0666 1.1066 8.51665 0.666733 10 0.666733C11.4834 0.666733 12.9334 1.1066 14.1668 1.9307C15.4001 2.75481 16.3614 3.92615 16.9291 5.29659C17.4968 6.66703 17.6453 8.17502 17.3559 9.62988C17.0665 11.0847 16.3522 12.4211 15.3033 13.47ZM10 9.83333C10.442 9.83333 10.866 9.65774 11.1785 9.34518C11.4911 9.03262 11.6667 8.6087 11.6667 8.16667C11.6667 7.72464 11.4911 7.30072 11.1785 6.98816C10.866 6.6756 10.442 6.5 10 6.5C9.55798 6.5 9.13405 6.6756 8.82149 6.98816C8.50893 7.30072 8.33334 7.72464 8.33334 8.16667C8.33334 8.6087 8.50893 9.03262 8.82149 9.34518C9.13405 9.65774 9.55798 9.83333 10 9.83333Z" fill="white"/>
</g>
</g>
<defs>
<clipPath id="clip0_38_367">
<rect width="20" height="20" fill="white"/>
</clipPath>
<clipPath id="clip1_38_367">
<rect width="20" height="20" fill="white" transform="translate(0 -1)"/>
</clipPath>
</defs>
</svg>
