<svg width="20" height="20" viewBox="0 0 20 20" fill="none" xmlns="http://www.w3.org/2000/svg">
<g clip-path="url(#clip0_38_405)">
<g clip-path="url(#clip1_38_405)">
<g clip-path="url(#clip2_38_405)">
<g clip-path="url(#clip3_38_405)">
<g clip-path="url(#clip4_38_405)">
<path d="M17.5 12.6833V15.63C17.5001 15.841 17.4202 16.0441 17.2763 16.1985C17.1325 16.3528 16.9355 16.4469 16.725 16.4617C16.3608 16.4867 16.0633 16.5 15.8333 16.5C8.46917 16.5 2.5 10.5308 2.5 3.16667C2.5 2.93667 2.5125 2.63917 2.53833 2.275C2.5531 2.06454 2.64715 1.86751 2.8015 1.72367C2.95585 1.57984 3.15902 1.4999 3.37 1.5H6.31667C6.42003 1.4999 6.51975 1.53822 6.59644 1.60752C6.67313 1.67682 6.72133 1.77215 6.73167 1.875C6.75083 2.06667 6.76833 2.21917 6.785 2.335C6.95061 3.49077 7.29 4.61486 7.79167 5.66917C7.87083 5.83583 7.81917 6.035 7.66917 6.14167L5.87083 7.42667C6.97038 9.98871 9.01212 12.0305 11.5742 13.13L12.8575 11.335C12.91 11.2617 12.9865 11.2091 13.0737 11.1864C13.161 11.1637 13.2535 11.1723 13.335 11.2108C14.3892 11.7116 15.513 12.0501 16.6683 12.215C16.7842 12.2317 16.9367 12.25 17.1267 12.2683C17.2294 12.2789 17.3245 12.3271 17.3936 12.4038C17.4628 12.4805 17.501 12.5801 17.5008 12.6833H17.5Z" fill="white"/>
</g>
</g>
</g>
</g>
</g>
<defs>
<clipPath id="clip0_38_405">
<rect width="20" height="20" fill="white"/>
</clipPath>
<clipPath id="clip1_38_405">
<rect width="20" height="20" fill="white" transform="translate(0 -1)"/>
</clipPath>
<clipPath id="clip2_38_405">
<rect width="20" height="20" fill="white" transform="translate(0 -1)"/>
</clipPath>
<clipPath id="clip3_38_405">
<rect width="20" height="20" fill="white" transform="translate(0 -1)"/>
</clipPath>
<clipPath id="clip4_38_405">
<rect width="20" height="20" fill="white" transform="translate(0 -1)"/>
</clipPath>
</defs>
</svg>
