<svg width="20" height="20" viewBox="0 0 20 20" fill="none" xmlns="http://www.w3.org/2000/svg">
<g clip-path="url(#clip0_38_362)">
<path d="M5.00002 7.5H16.615L17.0317 5.83334H6.66669V4.16667H18.1C18.2267 4.16667 18.3517 4.19556 18.4655 4.25112C18.5794 4.30668 18.679 4.38746 18.757 4.48733C18.8349 4.58719 18.889 4.7035 18.9153 4.82743C18.9415 4.95136 18.9391 5.07963 18.9084 5.2025L16.825 13.5358C16.7799 13.716 16.6758 13.876 16.5294 13.9903C16.3829 14.1046 16.2025 14.1667 16.0167 14.1667H4.16669C3.94567 14.1667 3.73371 14.0789 3.57743 13.9226C3.42115 13.7663 3.33335 13.5544 3.33335 13.3333V3.33334H1.66669V1.66667H4.16669C4.3877 1.66667 4.59966 1.75447 4.75594 1.91075C4.91222 2.06703 5.00002 2.27899 5.00002 2.50001V7.5ZM5.00002 19.1667C4.55799 19.1667 4.13407 18.9911 3.82151 18.6785C3.50895 18.366 3.33335 17.942 3.33335 17.5C3.33335 17.058 3.50895 16.6341 3.82151 16.3215C4.13407 16.0089 4.55799 15.8333 5.00002 15.8333C5.44205 15.8333 5.86597 16.0089 6.17853 16.3215C6.49109 16.6341 6.66669 17.058 6.66669 17.5C6.66669 17.942 6.49109 18.366 6.17853 18.6785C5.86597 18.9911 5.44205 19.1667 5.00002 19.1667ZM15 19.1667C14.558 19.1667 14.1341 18.9911 13.8215 18.6785C13.5089 18.366 13.3334 17.942 13.3334 17.5C13.3334 17.058 13.5089 16.6341 13.8215 16.3215C14.1341 16.0089 14.558 15.8333 15 15.8333C15.442 15.8333 15.866 16.0089 16.1785 16.3215C16.4911 16.6341 16.6667 17.058 16.6667 17.5C16.6667 17.942 16.4911 18.366 16.1785 18.6785C15.866 18.9911 15.442 19.1667 15 19.1667Z" fill="white"/>
</g>
<defs>
<clipPath id="clip0_38_362">
<rect width="20" height="20" fill="white"/>
</clipPath>
</defs>
</svg>
