<svg width="20" height="20" viewBox="0 0 20 20" fill="none" xmlns="http://www.w3.org/2000/svg">
<g clip-path="url(#clip0_38_374)">
<g clip-path="url(#clip1_38_374)">
<g clip-path="url(#clip2_38_374)">
<path d="M14.7141 12.0475L9.99998 16.7617L5.28582 12.0475C4.3535 11.1151 3.7186 9.92726 3.46139 8.63406C3.20418 7.34086 3.33622 6.00043 3.84082 4.78228C4.34541 3.56413 5.1999 2.52296 6.29622 1.79043C7.39254 1.0579 8.68146 0.666916 9.99998 0.666916C11.3185 0.666916 12.6074 1.0579 13.7037 1.79043C14.8001 2.52296 15.6546 3.56413 16.1591 4.78228C16.6637 6.00043 16.7958 7.34086 16.5386 8.63406C16.2814 9.92726 15.6465 11.1151 14.7141 12.0475ZM4.16665 17.3333H15.8333V19H4.16665V17.3333Z" fill="white"/>
</g>
</g>
</g>
<defs>
<clipPath id="clip0_38_374">
<rect width="20" height="20" fill="white"/>
</clipPath>
<clipPath id="clip1_38_374">
<rect width="20" height="20" fill="white" transform="translate(0 -1)"/>
</clipPath>
<clipPath id="clip2_38_374">
<rect width="20" height="20" fill="white" transform="translate(0 -1)"/>
</clipPath>
</defs>
</svg>
