<svg width="20" height="20" viewBox="0 0 20 20" fill="none" xmlns="http://www.w3.org/2000/svg">
<g clip-path="url(#clip0_71_1144)">
<g clip-path="url(#clip1_71_1144)">
<path d="M17.5 10.8333V16.6667C17.5 16.8877 17.4122 17.0996 17.2559 17.2559C17.0997 17.4122 16.8877 17.5 16.6667 17.5H3.33335C3.11234 17.5 2.90038 17.4122 2.7441 17.2559C2.58782 17.0996 2.50002 16.8877 2.50002 16.6667V10.8333H1.66669V9.16667L2.50002 5H17.5L18.3334 9.16667V10.8333H17.5ZM4.16669 10.8333V15.8333H15.8334V10.8333H4.16669ZM5.00002 11.6667H11.6667V14.1667H5.00002V11.6667ZM2.50002 2.5H17.5V4.16667H2.50002V2.5Z" fill="white"/>
</g>
</g>
<defs>
<clipPath id="clip0_71_1144">
<rect width="20" height="20" fill="white"/>
</clipPath>
<clipPath id="clip1_71_1144">
<rect width="20" height="20" fill="white"/>
</clipPath>
</defs>
</svg>
