<svg width="20" height="20" viewBox="0 0 20 20" fill="none" xmlns="http://www.w3.org/2000/svg">
<g clip-path="url(#clip0_38_440)">
<path d="M15.8334 18.3333H4.16669C3.50365 18.3333 2.86776 18.0699 2.39892 17.6011C1.93008 17.1323 1.66669 16.4964 1.66669 15.8333V2.5C1.66669 2.27898 1.75448 2.06702 1.91076 1.91074C2.06704 1.75446 2.27901 1.66666 2.50002 1.66666H14.1667C14.3877 1.66666 14.5997 1.75446 14.7559 1.91074C14.9122 2.06702 15 2.27898 15 2.5V12.5H18.3334V15.8333C18.3334 16.4964 18.07 17.1323 17.6011 17.6011C17.1323 18.0699 16.4964 18.3333 15.8334 18.3333ZM15 14.1667V15.8333C15 16.0543 15.0878 16.2663 15.2441 16.4226C15.4004 16.5789 15.6123 16.6667 15.8334 16.6667C16.0544 16.6667 16.2663 16.5789 16.4226 16.4226C16.5789 16.2663 16.6667 16.0543 16.6667 15.8333V14.1667H15ZM5.00002 5.83333V7.5H11.6667V5.83333H5.00002ZM5.00002 9.16666V10.8333H11.6667V9.16666H5.00002ZM5.00002 12.5V14.1667H9.16669V12.5H5.00002Z" fill="white"/>
</g>
<defs>
<clipPath id="clip0_38_440">
<rect width="20" height="20" fill="white"/>
</clipPath>
</defs>
</svg>
