<svg width="20" height="20" viewBox="0 0 20 20" fill="none" xmlns="http://www.w3.org/2000/svg">
<g clip-path="url(#clip0_2_62)">
<path d="M5.00001 7.49999H16.615L17.0317 5.83332H6.66667V4.16666H18.1C18.2267 4.16666 18.3517 4.19554 18.4655 4.2511C18.5794 4.30667 18.679 4.38745 18.757 4.48731C18.8349 4.58717 18.889 4.70349 18.9153 4.82741C18.9415 4.95134 18.9391 5.07961 18.9083 5.20249L16.825 13.5358C16.7799 13.716 16.6758 13.876 16.5293 13.9903C16.3829 14.1046 16.2024 14.1667 16.0167 14.1667H4.16667C3.94566 14.1667 3.7337 14.0789 3.57742 13.9226C3.42114 13.7663 3.33334 13.5543 3.33334 13.3333V3.33332H1.66667V1.66666H4.16667C4.38769 1.66666 4.59965 1.75445 4.75593 1.91073C4.91221 2.06701 5.00001 2.27898 5.00001 2.49999V7.49999ZM5.00001 19.1667C4.55798 19.1667 4.13405 18.9911 3.82149 18.6785C3.50893 18.3659 3.33334 17.942 3.33334 17.5C3.33334 17.058 3.50893 16.634 3.82149 16.3215C4.13405 16.0089 4.55798 15.8333 5.00001 15.8333C5.44203 15.8333 5.86596 16.0089 6.17852 16.3215C6.49108 16.634 6.66667 17.058 6.66667 17.5C6.66667 17.942 6.49108 18.3659 6.17852 18.6785C5.86596 18.9911 5.44203 19.1667 5.00001 19.1667ZM15 19.1667C14.558 19.1667 14.1341 18.9911 13.8215 18.6785C13.5089 18.3659 13.3333 17.942 13.3333 17.5C13.3333 17.058 13.5089 16.634 13.8215 16.3215C14.1341 16.0089 14.558 15.8333 15 15.8333C15.442 15.8333 15.866 16.0089 16.1785 16.3215C16.4911 16.634 16.6667 17.058 16.6667 17.5C16.6667 17.942 16.4911 18.3659 16.1785 18.6785C15.866 18.9911 15.442 19.1667 15 19.1667Z" fill="#8D9BA3"/>
</g>
<defs>
<clipPath id="clip0_2_62">
<rect width="20" height="20" fill="white"/>
</clipPath>
</defs>
</svg>
