<svg width="222" height="222" viewBox="0 0 222 222" fill="none" xmlns="http://www.w3.org/2000/svg">
<path d="M151.005 76.263C149.993 75.9446 148.943 75.8664 147.881 75.8664H85.1165C84.4683 75.8664 83.82 75.8888 83.1663 75.9502C81.0987 76.1457 80.7131 75.8217 80.2214 73.7942C79.1541 69.4265 76.0304 65.5949 70.1071 65.1872C68.0283 65.0419 65.9552 65.1872 63.882 65.2151C62.3621 65.2374 61.0769 66.321 60.6857 67.7564C60.0598 70.0409 61.6301 72.2192 64.005 72.3029C65.6758 72.3588 67.3522 72.3309 69.0286 72.3365C71.4259 72.3476 72.4708 73.0793 73.2643 75.3246C73.2923 75.4084 73.3202 75.4978 73.3481 75.5872C78.0029 89.5618 82.6577 103.542 87.307 117.517C87.3852 117.757 87.4523 117.991 87.5305 118.226C87.659 118.606 87.4802 118.829 87.1449 118.935C86.8208 119.042 86.4799 119.092 86.1558 119.181C81.529 120.46 78.2265 124.739 78.422 129.754C78.5841 133.96 80.6293 137.088 84.3844 139.054C84.6694 139.205 84.9656 139.356 85.2785 139.523C84.9377 139.937 84.6303 140.283 84.3453 140.651C82.3783 143.221 81.5625 146.103 82.1381 149.298C83.1495 154.917 88.1675 158.608 93.9232 158.039C99.2765 157.508 103.434 152.811 103.412 147.287C103.4 145.014 102.652 142.981 101.394 141.109C101.221 140.853 100.908 140.64 100.958 140.311H127.401C125.523 142.796 124.562 145.46 124.87 148.471C125.177 151.482 126.535 153.961 128.915 155.838C133.011 159.061 138.907 158.81 142.762 155.335C146.177 152.258 148.082 146.047 143.578 140.182C144.327 140.182 144.914 140.221 145.484 140.177C147.138 140.037 148.49 138.752 148.68 137.166C148.909 135.267 148.032 133.848 146.277 133.273C145.495 133.016 144.69 133.027 143.886 133.027C133.039 133.022 122.187 133.027 111.341 133.027C104.401 133.027 97.4548 133.027 90.5089 133.022C89.8663 133.022 89.2125 133.089 88.5643 132.972C86.7985 132.642 85.597 131.262 85.5635 129.469C85.5356 127.811 86.6867 126.425 88.4022 126.04C88.9834 125.912 89.5645 125.895 90.1624 125.895C105.719 125.9 121.282 125.906 136.845 125.895C142.231 125.895 146.277 122.728 147.585 117.517C149.613 109.412 151.647 101.302 153.67 93.1979C154.408 90.2544 155.179 87.3221 155.822 84.3562C156.57 80.8318 154.441 77.3298 151.005 76.263ZM86.3682 90.2265C85.9714 90.2265 85.6473 90.0757 85.5132 89.6512C84.8035 87.4841 84.0939 85.3113 83.3842 83.1498C83.6859 82.9543 83.9709 83.0325 84.2392 83.0325C89.2907 83.0269 94.3423 83.0269 99.3938 83.0269C100.433 83.0269 100.444 83.0325 100.618 84.0825C100.942 86.0709 101.249 88.0538 101.568 90.0589C101.26 90.2823 100.908 90.1762 100.59 90.1762C96.4322 90.1874 92.2803 90.1818 88.1284 90.1874C87.5417 90.1874 86.9549 90.2265 86.3682 90.2265ZM90.168 103.587C89.5589 101.738 88.9443 99.8892 88.3352 98.0405C88.2681 97.8394 88.1508 97.6439 88.229 97.3199C88.4525 97.3088 88.6313 97.292 88.8157 97.292C93.0906 97.2753 97.3654 97.2641 101.635 97.2473C101.724 97.2473 101.819 97.2473 101.914 97.2529C102.708 97.2753 102.808 97.359 102.942 98.1298C103.182 99.5597 103.417 100.995 103.657 102.431C103.725 102.827 103.808 103.218 103.853 103.615C103.948 104.413 103.898 104.475 103.099 104.48C101.489 104.492 99.88 104.48 98.2706 104.48C95.974 104.48 93.6829 104.486 91.3974 104.48C90.4698 104.492 90.4698 104.492 90.168 103.587ZM106.301 118.678C106.183 118.818 106.021 118.79 105.876 118.79C102.596 118.79 99.31 118.79 96.0298 118.796C95.6163 118.796 95.2364 118.801 95.0743 118.288C94.3534 116.087 93.6102 113.897 92.8335 111.568H100.869C102.043 111.568 103.222 111.557 104.395 111.568C105.021 111.574 105.2 111.708 105.295 112.272C105.641 114.316 105.965 116.355 106.301 118.405C106.317 118.5 106.301 118.589 106.301 118.678ZM122.936 112.194C122.64 114.054 122.333 115.914 122.036 117.779C121.88 118.74 121.813 118.796 120.852 118.796C118.717 118.801 116.583 118.801 114.442 118.796C113.604 118.79 113.498 118.69 113.358 117.874C113.057 116.014 112.749 114.154 112.447 112.294C112.341 111.652 112.352 111.63 113.04 111.63C114.588 111.619 116.135 111.63 117.683 111.63C119.259 111.63 120.841 111.619 122.416 111.63C123.014 111.63 123.026 111.652 122.936 112.194ZM125.289 98.0907C125.171 98.9453 124.998 99.7943 124.858 100.654C124.696 101.626 124.562 102.609 124.383 103.587C124.233 104.43 124.149 104.492 123.288 104.497C120.69 104.503 118.086 104.497 115.493 104.503C114.375 104.503 113.263 104.514 112.146 104.514C111.263 104.508 111.095 104.352 110.944 103.464C110.659 101.727 110.374 99.9898 110.089 98.2471C109.966 97.4875 110.112 97.2753 110.877 97.2697C112.213 97.2585 113.543 97.292 114.867 97.2976C115.828 97.3032 116.789 97.2976 117.745 97.2976V97.2641H123.875C124.121 97.2641 124.367 97.2473 124.612 97.2697C125.233 97.3144 125.372 97.4707 125.289 98.0907ZM126.708 89.6121C126.624 90.1427 126.267 90.2321 125.831 90.2321C124.283 90.2321 122.735 90.2432 121.187 90.2153C118.773 90.1706 116.359 90.165 113.945 90.2209C112.459 90.2544 110.972 90.2488 109.491 90.2321C108.854 90.2209 108.77 90.1204 108.653 89.478C108.296 87.3723 107.949 85.2778 107.586 83.1107H127.764C127.412 85.2946 127.049 87.4561 126.708 89.6121ZM141.611 112.093C141.231 113.523 140.89 114.97 140.454 116.388C139.963 117.991 138.912 118.746 137.202 118.757C134.665 118.779 132.123 118.768 129.586 118.768C129.407 118.768 129.217 118.801 129.021 118.662C129.379 116.517 129.731 114.35 130.106 112.194C130.195 111.646 130.329 111.568 131.039 111.568C133.391 111.568 135.744 111.574 138.096 111.574H141.567C141.689 111.792 141.65 111.943 141.611 112.093ZM145.076 98.2695C144.618 100.068 144.159 101.866 143.69 103.659C143.483 104.464 143.455 104.486 142.623 104.492C140.885 104.503 139.152 104.492 137.42 104.492C135.682 104.492 133.95 104.503 132.212 104.492C131.486 104.486 131.408 104.391 131.519 103.676C131.804 101.878 132.089 100.074 132.397 98.2695C132.547 97.3758 132.71 97.2473 133.626 97.2585C137.158 97.3143 140.695 97.3199 144.221 97.2585C144.405 97.2529 144.595 97.2585 144.78 97.2864C145.07 97.3311 145.21 97.5098 145.176 97.8115C145.143 97.9678 145.115 98.1187 145.076 98.2695ZM148.652 83.9764C148.205 85.7749 147.747 87.5678 147.277 89.3607C147.076 90.1539 146.976 90.2377 146.115 90.2377C144.847 90.2377 143.578 90.1874 142.315 90.1874C139.935 90.193 137.554 90.2209 135.174 90.2377C134.956 90.2432 134.744 90.2488 134.526 90.2321C133.866 90.1818 133.782 90.0813 133.9 89.4166C134.218 87.5902 134.542 85.7693 134.783 83.9317C134.889 83.1163 135.006 83.0325 135.867 83.0325C137.878 83.0213 139.89 83.0269 141.902 83.0269C143.913 83.0269 145.925 83.0213 147.931 83.0325C148.725 83.0381 148.848 83.1889 148.652 83.9764Z" fill="white"/>
<path d="M1.29642 221.494C1.00584 221.494 0.720853 221.494 0.430277 221.494C0.469393 221.064 0.469394 220.629 0.56439 220.21C4.73863 201.203 8.9017 182.196 13.143 163.2C13.4224 161.937 13.1709 161.016 12.6233 159.96C6.92354 148.979 3.02311 137.412 1.16231 125.152C0.827026 122.94 1.05613 120.617 0 118.528C0 112.613 0 106.703 0 100.788C0.676149 100.548 0.402337 99.9451 0.452629 99.4982C0.882906 95.4879 1.43612 91.4944 2.26314 87.5455C11.6733 42.6166 48.6939 7.94243 94.3982 1.17852C96.829 0.821054 99.3492 0.977444 101.679 0C107.446 0 113.219 0 118.985 0C119.108 0.474759 119.5 0.37422 119.84 0.413318C122.769 0.748442 125.725 0.949516 128.63 1.44103C155.022 5.93727 177.034 18.3257 194.53 38.556C209.578 55.9601 218.413 76.1401 220.793 99.0905C220.972 100.811 220.654 102.626 221.531 104.257C221.531 104.832 221.531 105.413 221.531 105.988C221.134 108.586 221.106 111.177 221.531 113.775C221.531 114.35 221.531 114.931 221.531 115.506C220.86 115.763 221.134 116.355 221.101 116.802C220.793 121.549 220.218 126.269 219.262 130.922C205.085 200.359 129.424 239.993 62.9992 208.698C61.5575 208.017 60.2722 207.805 58.7076 208.168C44.2794 211.497 29.8288 214.731 15.4061 218.071C10.6899 219.165 5.90093 219.964 1.29642 221.494ZM23.0561 198.544C23.6764 198.427 23.9446 198.388 24.2128 198.326C36.6964 195.5 49.1912 192.707 61.6581 189.803C62.9992 189.49 63.9883 189.753 65.0891 190.356C86.1112 201.879 108.357 204.967 131.732 199.834C168.165 191.83 197.279 161.055 202.828 124.303C207.047 96.3592 199.984 71.2976 181.448 50.0172C159.102 24.3635 130.536 13.9691 96.8793 18.3536C78.9809 20.6827 63.0942 28.1392 49.4762 40.0473C29.6947 57.3453 18.8931 79.1953 17.4066 105.447C16.4567 122.158 20.2453 137.993 28.415 152.526C31.1308 157.352 31.4493 161.558 30.1585 166.685C27.5377 177.141 25.4366 187.72 23.0561 198.544Z" fill="white"/>
</svg>
