<svg width="272" height="272" viewBox="0 0 272 272" fill="none" xmlns="http://www.w3.org/2000/svg">
<rect y="2" width="270" height="270" rx="52" fill="#2CB741"/>
<path d="M173.586 102.011C172.631 101.711 171.639 101.637 170.637 101.637H111.371C110.759 101.637 110.147 101.658 109.53 101.716C107.577 101.901 107.213 101.595 106.749 99.6803C105.741 95.556 102.792 91.938 97.1987 91.553C95.2358 91.4159 93.2782 91.553 91.3207 91.5794C89.8855 91.6005 88.6719 92.6237 88.3025 93.9791C87.7116 96.1362 89.1942 98.193 91.4367 98.2721C93.0144 98.3249 94.5974 98.2985 96.1803 98.3038C98.4439 98.3143 99.4306 99.0052 100.18 101.125C100.206 101.204 100.233 101.289 100.259 101.373C104.654 114.569 109.05 127.77 113.44 140.965C113.514 141.192 113.577 141.414 113.651 141.635C113.772 141.994 113.603 142.205 113.287 142.305C112.981 142.405 112.659 142.453 112.353 142.537C107.984 143.745 104.865 147.785 105.05 152.521C105.203 156.492 107.134 159.445 110.68 161.302C110.949 161.444 111.229 161.587 111.524 161.745C111.202 162.135 110.912 162.462 110.643 162.81C108.786 165.236 108.015 167.958 108.559 170.974C109.514 176.28 114.252 179.766 119.687 179.228C124.742 178.727 128.668 174.292 128.646 169.076C128.636 166.929 127.929 165.01 126.742 163.243C126.578 163 126.283 162.8 126.33 162.489H151.298C149.526 164.835 148.618 167.351 148.908 170.194C149.198 173.037 150.481 175.378 152.728 177.15C156.596 180.193 162.163 179.956 165.803 176.676C169.027 173.77 170.827 167.905 166.574 162.367C167.281 162.367 167.835 162.404 168.373 162.362C169.935 162.23 171.212 161.017 171.391 159.519C171.608 157.726 170.779 156.387 169.122 155.843C168.384 155.601 167.624 155.611 166.864 155.611C156.622 155.606 146.375 155.611 136.134 155.611C129.58 155.611 123.022 155.611 116.463 155.606C115.856 155.606 115.239 155.669 114.627 155.558C112.96 155.247 111.825 153.945 111.793 152.252C111.767 150.685 112.854 149.377 114.474 149.013C115.023 148.892 115.571 148.876 116.136 148.876C130.826 148.882 145.521 148.887 160.216 148.876C165.302 148.876 169.122 145.886 170.357 140.965C172.272 133.313 174.193 125.655 176.103 118.002C176.8 115.223 177.528 112.454 178.135 109.653C178.842 106.326 176.831 103.019 173.586 102.011ZM112.553 115.196C112.179 115.196 111.873 115.054 111.746 114.653C111.076 112.607 110.406 110.555 109.736 108.514C110.021 108.33 110.29 108.404 110.543 108.404C115.313 108.398 120.083 108.398 124.853 108.398C125.834 108.398 125.845 108.404 126.008 109.395C126.314 111.273 126.604 113.145 126.905 115.038C126.615 115.249 126.283 115.149 125.982 115.149C122.056 115.16 118.136 115.154 114.215 115.16C113.661 115.16 113.107 115.196 112.553 115.196ZM116.141 127.812C115.566 126.066 114.986 124.32 114.411 122.575C114.347 122.385 114.236 122.2 114.31 121.894C114.521 121.884 114.69 121.868 114.864 121.868C118.901 121.852 122.937 121.842 126.969 121.826C127.053 121.826 127.143 121.826 127.232 121.831C127.982 121.852 128.077 121.931 128.203 122.659C128.43 124.009 128.652 125.365 128.879 126.72C128.942 127.095 129.021 127.464 129.063 127.838C129.153 128.592 129.106 128.65 128.351 128.656C126.831 128.666 125.312 128.656 123.792 128.656C121.623 128.656 119.46 128.661 117.302 128.656C116.426 128.666 116.426 128.666 116.141 127.812ZM131.374 142.062C131.264 142.194 131.111 142.168 130.973 142.168C127.876 142.168 124.774 142.168 121.676 142.173C121.286 142.173 120.927 142.178 120.774 141.693C120.093 139.615 119.392 137.548 118.658 135.348H126.246C127.354 135.348 128.467 135.338 129.575 135.348C130.166 135.354 130.335 135.48 130.425 136.013C130.752 137.943 131.058 139.868 131.374 141.804C131.39 141.894 131.374 141.978 131.374 142.062ZM147.082 135.939C146.803 137.695 146.513 139.452 146.233 141.213C146.085 142.12 146.022 142.173 145.114 142.173C143.099 142.178 141.083 142.178 139.062 142.173C138.271 142.168 138.171 142.073 138.039 141.303C137.754 139.547 137.463 137.79 137.179 136.034C137.078 135.428 137.089 135.406 137.738 135.406C139.199 135.396 140.661 135.406 142.123 135.406C143.611 135.406 145.104 135.396 146.592 135.406C147.156 135.406 147.167 135.428 147.082 135.939ZM149.304 122.622C149.193 123.429 149.03 124.231 148.898 125.043C148.745 125.961 148.618 126.889 148.449 127.812C148.307 128.608 148.227 128.666 147.415 128.672C144.961 128.677 142.503 128.672 140.054 128.677C138.999 128.677 137.949 128.687 136.894 128.687C136.06 128.682 135.902 128.534 135.759 127.696C135.49 126.056 135.221 124.415 134.952 122.77C134.836 122.053 134.973 121.852 135.696 121.847C136.957 121.836 138.213 121.868 139.463 121.873C140.371 121.879 141.278 121.873 142.181 121.873V121.842H147.969C148.201 121.842 148.433 121.826 148.665 121.847C149.251 121.889 149.383 122.037 149.304 122.622ZM150.644 114.616C150.565 115.117 150.227 115.202 149.816 115.202C148.354 115.202 146.893 115.212 145.431 115.186C143.152 115.144 140.872 115.138 138.593 115.191C137.189 115.223 135.786 115.218 134.387 115.202C133.786 115.191 133.707 115.096 133.596 114.49C133.258 112.501 132.931 110.524 132.588 108.477H151.641C151.309 110.539 150.966 112.581 150.644 114.616ZM164.717 135.844C164.358 137.194 164.036 138.56 163.624 139.9C163.16 141.414 162.168 142.126 160.553 142.136C158.158 142.157 155.757 142.147 153.362 142.147C153.193 142.147 153.013 142.178 152.829 142.046C153.166 140.021 153.499 137.975 153.852 135.939C153.937 135.422 154.063 135.348 154.733 135.348C156.955 135.348 159.176 135.354 161.398 135.354H164.674C164.79 135.559 164.753 135.702 164.717 135.844ZM167.988 122.791C167.555 124.489 167.123 126.187 166.679 127.88C166.484 128.64 166.458 128.661 165.672 128.666C164.031 128.677 162.395 128.666 160.759 128.666C159.118 128.666 157.482 128.677 155.841 128.666C155.156 128.661 155.082 128.571 155.187 127.896C155.456 126.198 155.725 124.495 156.016 122.791C156.158 121.947 156.311 121.826 157.176 121.836C160.511 121.889 163.851 121.894 167.181 121.836C167.355 121.831 167.534 121.836 167.708 121.863C167.983 121.905 168.115 122.074 168.083 122.359C168.051 122.506 168.025 122.649 167.988 122.791ZM171.365 109.295C170.943 110.993 170.51 112.686 170.067 114.379C169.877 115.128 169.782 115.207 168.969 115.207C167.772 115.207 166.574 115.16 165.381 115.16C163.134 115.165 160.886 115.191 158.638 115.207C158.432 115.212 158.232 115.218 158.026 115.202C157.403 115.154 157.324 115.059 157.435 114.432C157.736 112.707 158.042 110.988 158.269 109.253C158.369 108.483 158.48 108.404 159.292 108.404C161.192 108.393 163.091 108.398 164.991 108.398C166.89 108.398 168.79 108.393 170.684 108.404C171.433 108.409 171.55 108.551 171.365 109.295Z" fill="white"/>
<path d="M32.2241 239.146C31.9498 239.146 31.6807 239.146 31.4063 239.146C31.4432 238.74 31.4432 238.329 31.5329 237.933C35.4745 219.986 39.4054 202.038 43.4103 184.101C43.6741 182.91 43.4367 182.039 42.9196 181.042C37.5376 170.674 33.8546 159.751 32.0975 148.175C31.7809 146.086 31.9973 143.892 31 141.92C31 136.335 31 130.755 31 125.17C31.6385 124.943 31.3799 124.373 31.4274 123.951C31.8337 120.165 32.3561 116.394 33.137 112.665C42.0226 70.2407 76.9792 37.4996 120.136 31.1128C122.431 30.7753 124.811 30.923 127.011 30C132.456 30 137.907 30 143.352 30C143.468 30.4483 143.838 30.3534 144.159 30.3903C146.924 30.7067 149.716 30.8966 152.459 31.3607C177.38 35.6063 198.164 47.304 214.685 66.4065C228.894 82.8404 237.236 101.895 239.484 123.566C239.653 125.191 239.352 126.905 240.181 128.445C240.181 128.988 240.181 129.536 240.181 130.08C239.806 132.532 239.78 134.979 240.181 137.432C240.181 137.975 240.181 138.523 240.181 139.067C239.548 139.309 239.806 139.868 239.774 140.29C239.484 144.773 238.941 149.23 238.039 153.623C224.652 219.189 153.209 256.614 90.487 227.064C89.1257 226.42 87.9121 226.22 86.4347 226.563C72.8108 229.706 59.1658 232.759 45.5473 235.913C41.0939 236.947 36.572 237.701 32.2241 239.146ZM52.7708 217.475C53.3564 217.365 53.6097 217.328 53.863 217.27C65.6506 214.601 77.4489 211.964 89.2207 209.222C90.487 208.926 91.421 209.174 92.4604 209.744C112.311 220.624 133.316 223.541 155.388 218.694C189.79 211.136 217.281 182.076 222.52 147.373C226.504 120.987 219.835 97.3228 202.333 77.2288C181.232 53.0052 154.259 43.1903 122.478 47.3304C105.578 49.5297 90.5767 56.5705 77.718 67.8147C59.0392 84.1483 48.8398 104.78 47.4362 129.568C46.5392 145.348 50.1167 160.3 57.8309 174.023C60.3953 178.58 60.696 182.551 59.4772 187.392C57.0025 197.265 55.0185 207.254 52.7708 217.475Z" fill="white"/>
</svg>
