<svg width="10" height="12" viewBox="0 0 10 12" fill="none" xmlns="http://www.w3.org/2000/svg">
<path fill-rule="evenodd" clip-rule="evenodd" d="M4.8889 1.03913C2.55732 1.03913 0.667205 2.84324 0.667205 5.06872C0.667205 7.2942 2.55732 9.09831 4.8889 9.09831C7.22048 9.09831 9.1106 7.2942 9.1106 5.06872C9.1106 2.84324 7.22048 1.03913 4.8889 1.03913ZM0 5.06872C0 2.49152 2.18884 0.402283 4.8889 0.402283C7.58897 0.402283 9.7778 2.49152 9.7778 5.06872C9.7778 7.64592 7.58897 9.73515 4.8889 9.73515C2.18884 9.73515 0 7.64592 0 5.06872Z" fill="#1F2C34"/>
<path fill-rule="evenodd" clip-rule="evenodd" d="M8.09283 10.1792C8.25605 10.0828 8.48698 10.1095 8.60861 10.2389L9.70475 11.4046C9.82638 11.5339 9.79266 11.7169 9.62943 11.8133C9.4662 11.9097 9.23528 11.883 9.11365 11.7536L8.01751 10.5879C7.89588 10.4586 7.9296 10.2756 8.09283 10.1792Z" fill="#1F2C34"/>
</svg>
