<?xml version="1.0" encoding="UTF-8"?>
<svg id="_лой_1" data-name="‘лой_1" xmlns="http://www.w3.org/2000/svg" viewBox="0 0 3000 2000">
  <defs>
    <style>
      .cls-1 {
        fill: #2a4e96;
      }

      .cls-2 {
        fill: #fff;
      }

      .cls-3 {
        fill: #b3cff9;
      }

      .cls-4 {
        opacity: .5;
      }

      .cls-5 {
        fill: #90aff4;
      }

      .cls-6 {
        fill: #f99746;
      }

      .cls-7 {
        fill: #7599ea;
      }

      .cls-8 {
        fill: #a8d29f;
      }

      .cls-9 {
        fill: #d7e5ff;
      }

      .cls-10 {
        fill: #059879;
      }

      .cls-11 {
        opacity: .8;
      }

      .cls-12 {
        fill: #e9f3fe;
      }

      .cls-13 {
        opacity: .4;
      }

      .cls-13, .cls-14 {
        fill: #5888dd;
      }

      .cls-15 {
        fill: #15447c;
      }

      .cls-16 {
        fill: #fca56b;
      }

      .cls-17 {
        fill: #1f4d84;
      }

      .cls-18 {
        fill: #739af0;
      }

      .cls-19 {
        fill: #607cf4;
      }

      .cls-20 {
        fill: #2bad40;
        opacity: .1;
      }

      .cls-21 {
        fill: #ed975d;
      }

      .cls-22 {
        fill: #aec3ff;
      }

      .cls-23 {
        fill: #ed7d2b;
      }

      .cls-24 {
        fill: #ffb27d;
      }

      .cls-25 {
        fill: #e6efff;
      }

      .cls-26 {
        fill: #113c68;
      }

      .cls-27 {
        fill: #d9d9d9;
      }

      .cls-28 {
        fill: #233862;
      }

      .cls-29 {
        fill: #163560;
      }
    </style>
  </defs>
  <rect class="cls-2" width="3000" height="2000"/>
  <g>
    <path class="cls-20" d="M2579.27,1842.87c-148.19,0-2151.66-4.32-2151.66-4.56-.83-1.94-254.33-312.65,64.88-637.5,158.17-160.96-145.25-369.49,0-548.54,248.81-306.7,494.99-133.97,700.07-220.23,36.24-15.23,72.6-39.73,109-77.34,20.49-21.15,42.94-39.64,66.98-55.61,3.69-2.46,7.41-4.86,11.17-7.19,14.39-8.93,29.32-17,44.69-24.26,10.33-4.87,20.84-9.37,31.56-13.51h0c17-6.57,34.47-12.24,52.31-17.03,25.34-6.81,51.42-11.88,78.02-15.31,11.6-1.51,23.3-2.69,35.09-3.58,229.16-17.23,487.04,79.67,620.13,221.3,26.79,28.52,148.63,176.08,52.59,378.91-60.64,128.06,193.4,250.36,283.67,396.6,229.51,371.79,3.58,623,1.49,627.85Z"/>
    <g class="cls-11">
      <path class="cls-9" d="M2060.76,978.46c-6.12,16.82-13.62,32.76-22.35,47.7-20.95,35.86-48.89,66.01-81.39,89.32-75.51,54.18-175.6,71.37-269.54,37.22-111.75-40.62-183.53-142.5-191.17-253.95-1.02-14.69-.92-29.54,.37-44.44,2.12-25.02,7.56-50.18,16.54-74.89,7.27-19.99,16.5-38.71,27.39-56,.12-.2,.25-.39,.37-.59,30.24-47.76,73.19-84.63,122.59-107.74,14.01-6.56,28.55-12.01,43.47-16.28,7.11-2.04,14.33-3.81,21.59-5.29,50.97-10.49,105.38-7.44,157.89,11.65,6.96,2.53,13.77,5.3,20.41,8.3,9.38,4.21,18.43,8.88,27.14,13.96,36.69,21.39,67.39,50.1,90.93,83.52h.01c14.67,20.81,26.54,43.44,35.33,67.27,4.62,12.52,8.39,25.36,11.26,38.45,1.79,8.15,3.23,16.37,4.32,24.69,2.62,19.97,3.16,40.34,1.52,60.82-2.06,25.47-7.53,51.11-16.68,76.3Z"/>
      <g>
        <path class="cls-22" d="M1738.53,722.58c-17.21,13.33-12.65,49-42.45,28.9-29.8-20.11-48.5-31.04-56.94-13.49-8.45,17.55,17.96,27.15,11.01,46.27-6.95,19.12-21.09,21.14-35.99,5.44-14.92-15.7-15.35-30.81-39.49-30.31-24.15,.5-34.45-9.43-33.27-27.56,.2-3.19-.12-5.95-.79-8.41,.12-.2,.25-.39,.37-.59,30.24-47.76,73.19-84.63,122.59-107.74,14.01-6.56,28.55-12.01,43.47-16.28,7.11-2.04,14.33-3.81,21.59-5.29,8.42,3.42,17.45,10.36,22.23,24.28,10.51,30.63,27.56,23.42,13.08,49.08-14.49,25.65-8.52,31.95,7.28,36.66,15.81,4.71,34.02,11.33,31.54,23.83-2.49,12.5-47.01-18.13-64.23-4.79Z"/>
        <path class="cls-22" d="M2060.76,978.46c-6.12,16.82-13.62,32.76-22.35,47.7-20.95,35.86-48.89,66.01-81.39,89.32-8.1-.25-15.47-3-21.68-8.55-29.18-26.07,9.49-53.75,29.85-67.23,20.36-13.47-17.44-17.94-36.5-44.19-19.06-26.25,25.57-61.83-3.11-63.75-28.68-1.92-63.56-3.78-69.4-34.5-5.84-30.72,24.33-24.4,19.05-50.28-5.28-25.88,19.67-30.73,46.36-23.34,26.69,7.38,29.98-12.29,63.06-3.36,33.09,8.93,17.51,49.65,54.01,59.83,36.5,10.18,31.92,17.79,31.92,17.79,2.58,.86,4.87,2.3,6.85,4.25-2.06,25.47-7.53,51.11-16.68,76.3Z"/>
        <path class="cls-22" d="M2075.93,841.35c-34.75,3.63-32.4-39.75-61.9-37.17-29.75,2.59-17.02-18.56-31.74-40.4-14.74-21.84-64.39-10-54.3-32.11,10.09-22.09,37.82-4.81,50.81-20.69,12.99-15.89,40.47-.75,40.47-.75,1.88-.03,3.8,.21,5.74,.72,0,0,0-.01,.01,0,14.67,20.81,26.54,43.43,35.33,67.27,4.62,12.52,8.39,25.36,11.26,38.45,1.79,8.15,3.23,16.37,4.32,24.69Z"/>
        <path class="cls-22" d="M1855.72,672.41s23.59-16.7,1.41-32.23c-22.19-15.52-24.87-6.73-43.24-15.72-18.38-8.99-31.27,3.08-22.8,24.45,8.46,21.37,8.8,56.6,27.78,44.79,18.98-11.81,21.03-25.24,36.86-21.29Z"/>
      </g>
    </g>
    <path class="cls-8" d="M493.77,1843.14h101.6c5.44-4.62-3.77-15.11-13.39-15.81-4.18-.32-9.47,.56-15.51,1.83-1.4-18.57-9.38-102.05-39.47-98.69-33.83,3.76,0,36.76,9.56,56.3,7.09,14.47,14.56,35.23,17.97,45.03-2.75,.59-5.59,1.18-8.5,1.71-4.48-13.77-21.17-60.08-42.39-57.38-24.91,3.16-14.9,21.73,2.76,32.75,12.95,8.11,28.86,19.63,36.42,25.19-6.4,1.05-13.09,1.75-19.87,1.59-17.4-.41-25.9,4.71-29.19,7.47Z"/>
    <path class="cls-8" d="M2110.67,1842.14h-94.37c-5.06-4.29,3.5-14.03,12.44-14.69,3.88-.29,8.79,.52,14.4,1.7,1.3-17.25,8.71-94.79,36.66-91.67,31.43,3.49,0,34.15-8.88,52.3-6.58,13.44-13.52,32.72-16.7,41.82,2.55,.55,5.19,1.09,7.89,1.59,4.17-12.79,19.66-55.81,39.37-53.3,23.14,2.94,13.84,20.18-2.56,30.42-12.03,7.53-26.81,18.23-33.83,23.4,5.95,.97,12.16,1.63,18.45,1.48,16.17-.38,24.05,4.38,27.11,6.94Z"/>
    <g>
      <path class="cls-7" d="M1309.31,1211.17l-49.77,591.8s-5.21,35.87,21.47,35.94c43.87,.1,218.38,0,218.38,0,0,0-33.02-7.47-32.62-24.27,.47-19.8,58.17-609.07,58.17-609.07l-215.63,5.6Z"/>
      <path class="cls-5" d="M1515.81,1828.41c-8.63,.03-177.57,.31-220.3-.24-18.62-.23-21.89-16.56-22.04-27.12-.08-5.06,.57-8.81,.57-8.81l1.29-15.38,3.3-39.2,2.91-34.64,3.75-44.51,3.15-37.57,35.37-420.52,215.63-5.6s-24.3,246.61-41.49,426.11c-1.92,20-3.74,39.18-5.43,57.08-.55,5.72-1.07,11.3-1.59,16.74-1.59,16.98-3.05,32.58-4.32,46.35-.67,7.26-1.29,14-1.84,20.18-2.19,24.21-3.48,39.67-3.5,42.61,0,1.71,.14,3.31,.42,4.79,3.54,18.86,30.88,19.71,34.12,19.71Z"/>
      <polygon class="cls-22" points="785.65 889.13 906.89 1376.12 923.49 1442.81 979.95 1669.63 2029 1669.63 1820.88 889.13 785.65 889.13"/>
      <polygon class="cls-5" points="785.65 889.13 768.85 894.73 957.62 1686.57 979.96 1669.63 785.65 889.13"/>
      <polygon class="cls-7" points="957.62 1686.57 2000.21 1686.57 2029 1669.63 979.96 1669.63 957.62 1686.57"/>
      <rect class="cls-22" x="1323.74" y="1828.41" width="225.74" height="10.73" transform="translate(2873.22 3667.55) rotate(180)"/>
      <polygon class="cls-14" points="1492.1 1686.57 1490.93 1694.77 1278.64 1737.66 1281.55 1703.02 1282.94 1686.57 1492.1 1686.57"/>
      <path class="cls-13" d="M1515.81,1828.41c-8.63,.03-177.57,.31-220.3-.24-18.62-.23-21.89-16.56-22.04-27.12l211.29-39.75c-2.19,24.21-3.48,39.67-3.5,42.61,0,1.71,.14,3.31,.42,4.79,3.54,18.86,30.88,19.71,34.12,19.71Z"/>
      <polygon class="cls-22" points="785.65 889.13 1820.88 889.13 1988.84 1516.41 941.81 1516.41 785.65 889.13"/>
      <polygon class="cls-18" points="1940.02 1489.22 970.73 1489.22 936.09 1351.24 922.69 1297.85 917.23 1276.08 881.63 1134.28 879.78 1126.9 860.97 1051.94 852.55 1018.41 845.37 989.8 828.53 922.74 1783.84 922.74 1802.33 989.8 1810.22 1018.41 1819.46 1051.94 1880.37 1272.89 1880.37 1272.9 1885.53 1291.62 1887.93 1300.31 1929.99 1452.84 1940.02 1489.22"/>
      <polygon class="cls-19" points="1802.33 989.8 845.37 989.8 828.53 922.73 1783.85 922.73 1802.33 989.8"/>
      <g>
        <path class="cls-12" d="M868.05,953.04c-1.15-4.63,1.66-8.38,6.29-8.38s9.32,3.75,10.47,8.38c1.15,4.63-1.66,8.38-6.29,8.38s-9.32-3.75-10.47-8.38Z"/>
        <path class="cls-12" d="M895.91,953.04c-1.15-4.63,1.66-8.38,6.29-8.38s9.32,3.75,10.47,8.38c1.15,4.63-1.66,8.38-6.29,8.38s-9.32-3.75-10.47-8.38Z"/>
        <path class="cls-12" d="M925.91,953.04c-1.15-4.63,1.66-8.38,6.29-8.38s9.32,3.75,10.47,8.38c1.15,4.63-1.66,8.38-6.29,8.38s-9.32-3.75-10.47-8.38Z"/>
      </g>
    </g>
    <path class="cls-10" d="M1593.81,532.83c39.18-46,99.59-138.4,140.26-185.71,8.37-9.74,1.41-24.77-11.43-24.77h-74.01l69.81-157.86c2.98-6.74-6.2-12.11-10.62-6.21l-168.8,225.92c-4.92,6.59,.46,15.87,8.63,14.86l83.79-10.32-49.85,136.94c-2.74,7.54,7.02,13.25,12.22,7.14Z"/>
    <path class="cls-22" d="M1245.36,812.99c8.81-45.21,14.38-129.17,23.69-175.81,1.92-9.6-8.33-16.98-16.86-12.18l-49.16,27.68-12.68-130.96c-.54-5.59-8.65-5.72-9.37-.15l-27.61,213.19c-.8,6.22,6.24,10.37,11.29,6.64l51.79-38.19,18.11,109.6c1,6.03,9.62,6.17,10.79,.17Z"/>
    <g>
      <path class="cls-25" d="M1982.36,1502.58l-842.23,70.96c-63.95,5.39-110.23-59.81-84.05-118.4l356.82-798.57c27.07-60.58,110.28-67.59,147.1-12.39l485.41,727.61c35.62,53.39,.9,125.41-63.05,130.8Z"/>
      <path class="cls-10" d="M1985.04,1534.43l-842.23,70.96c-41.42,3.49-80.52-14.66-104.58-48.56-24.06-33.9-28.3-76.79-11.34-114.74l356.82-798.57c17.53-39.24,53.57-64.82,96.4-68.43,42.83-3.61,82.64,15.58,106.49,51.34l485.41,727.61c23.07,34.58,26.07,77.58,8.02,115.02-18.05,37.44-53.56,61.88-94.98,65.37Zm-499.56-895.63c-19.28,1.62-35.5,13.14-43.39,30.8l-356.82,798.57c-7.63,17.08-5.72,36.39,5.11,51.64,10.83,15.26,28.43,23.43,47.07,21.86l842.23-70.96c18.64-1.57,34.63-12.57,42.75-29.42,8.12-16.85,6.78-36.21-3.61-51.77l-485.41-727.61c-10.74-16.09-28.65-24.73-47.93-23.11Z"/>
      <path class="cls-10" d="M1465.74,1380.4c-.91-10.85,.17-21.05,3.28-30.59,3.1-9.53,7.9-17.97,14.41-25.31,6.51-7.33,14.57-13.32,24.2-17.94,9.62-4.61,20.67-7.46,33.14-8.51,12.46-1.05,23.92-.1,34.34,2.82,10.43,2.93,19.47,7.48,27.11,13.62,7.65,6.15,13.79,13.67,18.44,22.54,4.65,8.89,7.43,18.75,8.35,29.61,.91,10.85-.19,20.97-3.3,30.34-3.11,9.38-7.92,17.73-14.43,25.07-6.51,7.34-14.66,13.33-24.45,17.96-9.79,4.63-20.92,7.48-33.39,8.53-12.47,1.05-23.84,.1-34.09-2.84-10.26-2.94-19.21-7.49-26.86-13.64-7.64-6.14-13.79-13.57-18.42-22.3-4.64-8.72-7.41-18.51-8.33-29.36Zm130.21-152.37l-121.32,10.22-52.11-413.07,155.69-13.12,17.74,415.97Z"/>
    </g>
    <g>
      <path class="cls-24" d="M2016.68,1255.74s-2.57-5.94-4.23-8.75c-1.66-2.81-8.77-11.05-9.98-9.19-1.21,1.87-6.05,14.42-3.48,17.94,2.57,3.52-.17,9.63,12.62,13.34l5.07-13.34Z"/>
      <path class="cls-23" d="M2158.78,1218.24s-65.46,56.17-90.98,50.97c-19.96-4.07-51.51-14.35-51.51-14.35,0,0-8.33,8.14-5.97,17.9,0,0,40.2,38.88,68.84,39.13,44.77,.39,65.88-22.8,65.88-22.8l13.75-70.84Z"/>
      <path class="cls-26" d="M2273.58,1810.68s-1.9,31.51-7.83,31.96c-.79,.06-30.08,.06-30.08,.06l-37.39-.22s.24-9.26,11.17-11.22c10.93-1.96,29.22-9.85,35.84-24.7,6.96-15.62,28.28,4.12,28.28,4.12Z"/>
      <path class="cls-1" d="M2275.73,1812.87s-11.37,3.91-20.24,3.91c-9.9,0-18.9-2.77-18.9-2.77,0,0-2.14-21.27-13.92-68.14-6.17-24.57-14.99-56.16-27.53-95.41-34.68-108.48-45.23-171.94-46.19-177.95-.05-.32-.07-.47-.07-.47l.11-.05,106.62-48.12s-13.18,149.51,3.63,206.9c2.36,8.02,4.37,17.37,6.1,27.49,10.62,62.33,10.37,154.62,10.37,154.62Z"/>
      <path class="cls-28" d="M2222.68,1745.87c-6.17-24.57-14.99-56.16-27.53-95.41-34.68-108.48-45.23-171.94-46.19-177.95,.01-.18,.02-.35,.04-.53l106.62-48.12s-13.18,149.51,3.63,206.9c2.36,8.02-36.58,115.11-36.58,115.11Z"/>
      <path class="cls-15" d="M2190.3,1810.68s-1.9,31.51-7.83,31.96c-.79,.06-30.08,.06-30.08,.06l-37.39-.22s.25-9.26,11.17-11.22c10.93-1.96,29.22-9.85,35.84-24.7,6.96-15.62,28.28,4.12,28.28,4.12Z"/>
      <path class="cls-1" d="M2129.85,1427.38s-1.39,96.88,14.92,215.84c16.31,118.96,10.78,169.45,10.78,169.45,0,0,11.2,3.73,15.72,4.11,11.52,.96,23.33-2.78,23.33-2.78,0,0,23.34-119,16.65-178.54-6.69-59.54,31.96-204.31,31.96-204.31l-113.37-3.78Z"/>
      <path class="cls-24" d="M2205.45,1200.66l-20.81,14.03-18.96-5.51c-3.47-5.08-4.38-14.88-4.43-23.36-.05-8.42,.74-15.56,.74-15.56l28.08-12.74,10.48-4.75c-.03,.17-.82,8.84-.93,10.11-1.96,22.49,5.83,37.78,5.83,37.78Z"/>
      <path class="cls-6" d="M2129.37,1454.32c25.91,25.71,123.95,21.39,129.99-6.94,6.03-28.33-6.59-241.15-50.84-254.52-9.18-2.77-58.28,13.54-58.28,13.54,0,0-7.7,20.72-12.76,47.09-.98,5.13-3.84,59.52-5.98,110.4-1,23.8-1.84,46.83-2.28,63.7-.39,15.8-.41,26.18,.14,26.74Z"/>
      <path class="cls-16" d="M2197.52,1163.28c-5.7,9.9-25.68,18.57-36.27,22.54-.05-8.42,.74-15.56,.74-15.56l28.08-12.74c6.21-.08,9.99,1.34,7.45,5.76Z"/>
      <path class="cls-24" d="M2151.4,1168.5s45.24,14.51,53.6-14.59c8.36-29.1,19.82-46.83-8.71-57.32-28.53-10.49-37.36-1.1-42.45,7.92-5.09,9.02-13.99,59.48-2.44,64Z"/>
      <path class="cls-29" d="M2155.62,1101.69s2.89,33.87,9.7,32.4c6.81-1.47,14.31-4.62,13.32,5.59-1,10.21,6.62,27.71,16.45,27.67,21.07-.09,43.96-55.67,38.2-66.21-16.64-30.41-101.71-36.55-77.66,.55Z"/>
      <path class="cls-23" d="M2162.27,1193.59c.58-.25,33.68-15.51,37.55-14.2,3.87,1.31,8.7,13.47,8.7,13.47l-58.28,13.54s4.59-9.59,12.03-12.81Z"/>
      <g>
        <path class="cls-17" d="M1956.22,1358.41l185.53,179.57c3.64,3.52,8.22,4.64,10.19,2.49l6.26-6.84c1.97-2.15,.6-6.79-3.03-10.31l-185.53-179.57c-3.64-3.52-8.22-4.64-10.19-2.49l-6.26,6.84c-1.97,2.15-.6,6.79,3.03,10.31Z"/>
        <path class="cls-18" d="M2060.33,1459.18l81.42,78.8c3.64,3.52,8.22,4.64,10.19,2.49l6.26-6.84c1.97-2.15,.6-6.79-3.03-10.31l-81.42-78.8-13.42,14.65Z"/>
        <path class="cls-17" d="M1998.86,1290.61c-7.12,24.13-20.31,46.73-39.47,65.25-58.49,56.57-150.53,53.68-205.56-6.44-54.31-59.34-52.29-152.24,4-209.04,.74-.76,1.51-1.52,2.28-2.26,58.48-56.57,150.51-53.7,205.54,6.43,37.02,40.44,47.87,96.49,33.21,146.06Zm-41.56-137.97c-32.02-34.99-77.66-48.94-120.51-41.31-24.97,4.44-48.98,16.2-68.82,35.38-53.88,52.1-56.46,139.23-5.77,194.62,18.66,20.39,41.93,33.62,66.58,39.63,42.33,10.3,88.71-.75,122.75-33.68,53.88-52.11,56.47-139.24,5.77-194.63Z"/>
        <g class="cls-4">
          <path class="cls-3" d="M1762.2,1341.33c18.66,20.39,41.93,33.62,66.58,39.63,42.32,10.29,88.7-.76,122.75-33.69,53.88-52.1,56.46-139.24,5.77-194.63-32.03-34.99-77.66-48.94-120.51-41.31-24.97,4.44-48.99,16.2-68.82,35.38-53.88,52.1-56.46,139.24-5.77,194.62Z"/>
        </g>
      </g>
      <path class="cls-23" d="M2129.22,1427.58c102.23-74.88,93.73-174.81,93.73-174.81-37.37,21.66-74.44,69.56-91.45,111.11-1,23.8-1.84,46.83-2.28,63.7Z"/>
      <g>
        <path class="cls-24" d="M2028.33,1393.48c-7.21-1.71-12.05-7.31-13.06-8.29,0,0-3.07,.22,.5,6.96,.3,.56,.96,2.01,1.47,3.04,.2,.42-.08,.91-.53,.94-4.16,.33-8.34-1.37-16.36,.35-1.11,.24-1.43,2.96-1.39,4.12,.07,1.96-.07,4.17,2.15,7.18,1.29,1.75,4.89,3.63,12.92,6.95,3.06,1.26,11.8,.31,19.99-2.58l6.55-3.12-2.03-12.5-1.64,.35c-2.61,.56-5.84-2.71-8.57-3.4Z"/>
        <path class="cls-6" d="M2191.23,1206.4s91.86,17.98-27.03,154.72c-19.01,21.87-121.74,50.34-121.74,50.34,0,0-10.42-9.11-5.17-16.49,0,0,70.73-52.8,86.29-61.19,7-3.78,27.17-84.27,38.58-103.65,11.41-19.38,29.06-23.73,29.06-23.73Z"/>
      </g>
      <path class="cls-24" d="M2014.19,1257.4s-3-5.9-3.59-9.02c-.59-3.11-4.37-12.19-5.93-13.79-.62-.64-2.68,.19-2.92,2.94-.11,1.2,.47,3.38,1.48,5.97,1.64,4.23,1.37,9.96,1.94,11.87,1.42,4.76,9.02,2.03,9.02,2.03Z"/>
    </g>
    <g>
      <g>
        <path class="cls-24" d="M982.89,1020.74c-1.61,1.84-1.81,3.89-1.02,6.09,0,0,0,.02,.02,.03,1.47,4.06,6.32,8.6,11.96,13.13,.72,.58,1.36,1.11,1.92,1.6,.15,.13,.29,.26,.43,.39,.11,.1,.22,.2,.33,.3,5.26,4.85,3.28,5.96,12.72,15.8,10.77,11.21,18.18,11.42,20.29,10.39,1.79-.87-1.84-6.81-5.86-13.5-.19-.32-.39-.65-.58-.97-.54-.89-1.07-1.79-1.6-2.68-4.71-8.04-3.5-11.81-2.38-23.78,.91-9.72,15.15-54.32,15.15-54.32l-20.64-3.56s-6.23,35.51-13.08,40.98c-3.66,2.91-7.76,2.95-11.28,5.11-.25,.15-.49,.3-.73,.46-2,1.33-4.04,2.69-5.65,4.54Z"/>
        <path class="cls-28" d="M982.89,1020.74c-1.61,1.84-1.81,3.89-1.02,6.09,0,0,0,.02,.02,.03,1.8,4.06,6.53,8.57,11.98,13.09,.71,.59,1.34,1.13,1.9,1.64,.15,.13,.29,.26,.43,.39,.11,.1,.22,.2,.33,.3,5.26,4.85,3.28,5.96,12.72,15.8,10.77,11.21,18.18,11.42,20.29,10.39,1.79-.87-1.84-6.81-5.86-13.5-2.1-.77-11.84-4.73-19.2-14.16-6.25-7.98-10.49-18.14-14.74-24.39-.47-.09-.75-.14-1.21-.23-2,1.33-4.04,2.69-5.65,4.54Z"/>
        <path class="cls-24" d="M1149.34,1007.91c1.27,6.37,10.36,5.31,20.5,2.84,10.15-2.48,7.74,.47,22.18-1.12,14.44-1.59,18.82-6.98,19.26-9.12,.4-1.91-6.74-2.58-14.39-3.46-.96-.11-1.93-.23-2.9-.35-8.64-1.09-14.97-6.67-22.82-11.25-7.43-4.34-18.52-22.02-18.52-22.02l-19.81,1.56s10.39,15.79,14.41,22.65c2.36,4.04,2.24,9.38,1.94,13.5-.15,2.24-.3,4.53,.15,6.78Z"/>
        <path class="cls-28" d="M1169.84,1010.75c10.15-2.48,7.74,.47,22.18-1.12,14.44-1.59,18.82-6.98,19.26-9.12,.4-1.91-6.74-2.58-14.39-3.46l-.07,.15s-8.66,6.14-20.68,6.42c-9.8,.24-20.17-2.58-26.94-2.47-.15,2.24-.3,4.53,.15,6.78,1.27,6.37,10.36,5.31,20.5,2.84Z"/>
        <path class="cls-28" d="M1073.48,881.24l-18.53,49.81-24.19,65.04s-6.56,.63-12.84-1.18c-5.78-1.67-12.42-6.05-12.42-6.05,0,0,6.74-69.85,19.27-109.94,3.21-10.29,6.81-18.61,10.78-23.3,19.42-22.93,37.93,25.6,37.93,25.6Z"/>
        <path class="cls-1" d="M1054.69,802.11c-10.54-3.4-38.04-.07-67.87,5.32-8.24,1.49-16.55-2.28-20.89-9.44h0l-75.06-5.89s-24.79,54.92-11.24,89.93c1.99,5.15,6.36,8.36,13.12,8.47,0,0,0,0,0,0,0,0,45.36,.08,59.87,.08,37.33,.01,79.01-25.63,84.4-26.71,8.82-1.76,12.35,15.89,21.17,34.42,8.82,18.53,82.92,82.09,82.92,82.09,0,0,11.39,.12,16.1-1.65,5.06-1.9,6.91-4.36,6.91-4.36,0,0-82.07-163.43-109.43-172.27Z"/>
        <path class="cls-28" d="M958.03,577.56c-5.57-3.32-11.01-3.83-14.34-3.74-2.32,.07-4.63-.09-6.92-.42-28.65-4.21-45.91,37.4-46.93,49.97-1.86,23.08-14.08,26.6-31.27,41.05-34.48,28.98-24.38,62.66-5.54,75.19,11.31,7.51,31.24,0,31.24,0,.28,.2,54.52-30.29,81.25-45,40.07-5.68,8.6-107.47-7.49-117.06Z"/>
        <path class="cls-24" d="M943.13,682.08c.12,.08-13.15,4.6-22.02,.67-8.35-3.69-14.66-17.43-14.54-17.43,3.8-.17,7.97-3.49,11.18-25.27l1.62,.58,27.18,9.79s-1.97,8.72-3.25,17.03c-1.08,6.97-1.65,13.65-.17,14.64Z"/>
        <path class="cls-21" d="M946.55,650.42s-1.09,4.71-2.67,13.5c-15.61-2.82-22.31-14.85-24.51-23.29l27.18,9.79Z"/>
        <path class="cls-24" d="M950.59,659.08s-37.19-5.01-33.72-28.12c3.47-23.11,1.01-39.33,24.91-37.11,23.89,2.22,27.17,11.73,27.89,19.73,.72,8-9.31,46.21-19.07,45.5Z"/>
        <path class="cls-28" d="M968.32,600.9s-23.82,20.51-40.01,22.16c-16.2,1.65-22.33-3.55-22.33-3.55,0,0,9.55-7.92,15.3-20.71,1.69-3.77,5.27-6.36,9.39-6.71,11.56-.99,33.49-1.44,37.65,8.81Z"/>
        <path class="cls-28" d="M953.43,599.06s7.96,7.7,10.47,13.42c2.42,5.51,3.14,18.7,1.21,23.93,0,0,12.42-24.13,5.4-35.85-7.45-12.44-17.08-1.5-17.08-1.5Z"/>
        <path class="cls-6" d="M974.43,736.89c-1.15,75.29-.33,59.56-8.57,66.7-1.99,1.72-7.56,2.74-14.91,3.23-23.09,1.52-63.67-2.29-65.21-6.56-5.32-14.77-1.56-19.35-5.99-41.95-.46-2.4-1.03-5.01-1.71-7.84-3.7-15.52-7.3-20.81,5.85-45.74,11.93-22.59,24.31-40.92,25.43-40.26,31.44,18.68,33.98,2.99,33.98,2.99,0,0,31.7,32.71,31.13,69.44Z"/>
        <path class="cls-1" d="M1054.95,931.05l-24.19,65.04s-6.56,.63-12.84-1.18c-5.78-1.67-12.42-6.05-12.42-6.05,0,0,6.74-69.85,19.27-109.94l30.18,52.12Z"/>
        <path class="cls-6" d="M943.3,667.44s32.35,5.5,36.15,19.43c3.79,13.93,16.27,98.49,16.27,98.49,0,0-9.13,8.91-16.72,1.31-7.6-7.6-23.89-79.12-23.89-79.12l-11.81-40.1Z"/>
        <path class="cls-23" d="M950.96,806.81c-23.09,1.52-63.67-2.29-65.21-6.56-5.32-14.77-1.56-19.35-5.99-41.95l11.15-31.35s-1.85,34.92,8.44,44.1c10.28,9.19,42.15,17.74,47.16,25.42,2.41,3.68,4,7.38,4.46,10.34Z"/>
        <path class="cls-24" d="M924.51,792.12s22.78-5.06,26.45-3.04c3.67,2.02,12.65,9.39,13.78,11.95,1.12,2.56-8.18-1.95-11.21-2.76-1.96-.53-7.12,1.26-9.68,2.12-10.75,3.58-17.34,1.73-17.34,1.73l-2.01-10Z"/>
        <path class="cls-6" d="M909.3,664.44s-30.58,1.87-41.18,16.64c-14.91,20.78-44.51,109.36-27.57,121.18,19.08,13.31,86.84,3.51,86.84,3.51,0,0,2.26-10.54-.88-15.64-3.14-5.1-54.12-13.35-56.47-15.71-2.35-2.35,29.43-45.88,29.43-52.94,0-7.06,9.81-57.04,9.81-57.04Z"/>
        <path class="cls-24" d="M952.06,795.42s4.77,6.16,6.33,6.89c1.56,.74,2.58,.55,2.58,.55l-3.21-5.79-5.7-1.66Z"/>
        <path class="cls-24" d="M950.96,789.08l13.87,6.74s-.59,.97-2.3,.89-6.02-1.66-6.02-1.66l-5.56-5.97Z"/>
      </g>
      <polygon class="cls-28" points="1069.44 804.96 924.5 804.91 924.5 808.11 1068.15 808.16 1069.44 804.96"/>
      <polygon class="cls-28" points="958.39 808.12 1068.15 808.16 1101.2 726.06 991.61 726.02 958.39 808.12"/>
      <path class="cls-2" d="M1040.46,767.09c.83-2.89-.84-5.23-3.73-5.23-2.89,0-5.9,2.34-6.73,5.22-.83,2.89,.84,5.23,3.73,5.23,2.89,0,5.9-2.34,6.73-5.22Z"/>
    </g>
    <path class="cls-27" d="M311.26,1844.34H2629.6c1.6,0,2.9,1.3,2.9,2.9v1.67c0,1.6-1.3,2.9-2.9,2.9H311.26c-1.6,0-2.9-1.3-2.9-2.9v-1.67c0-1.6,1.3-2.9,2.9-2.9Z"/>
  </g>
</svg>