<svg fill="none" height="51" viewBox="0 0 51 51" width="51" xmlns="http://www.w3.org/2000/svg" xmlns:xlink="http://www.w3.org/1999/xlink"><linearGradient id="a" gradientUnits="userSpaceOnUse" x1="25.5827" x2="25.5827" y1=".300995" y2="50.8663"><stop offset="0" stop-color="#1f2c34"/><stop offset="1" stop-color="#2cb741"/></linearGradient><path d="m43.8284 16.3883h2.4411c1.2192 0 2.3885.4843 3.2506 1.3464s1.3465 2.0314 1.3465 3.2506v9.1942c0 1.2192-.4844 2.3885-1.3465 3.2506s-2.0314 1.3464-3.2506 1.3464h-2.4411c-.5603 4.4438-2.7231 8.5303-6.0825 11.4927-3.3593 2.9624-7.6843 4.597-12.1632 4.5971v-4.5971c3.6576 0 7.1655-1.453 9.7518-4.0394 2.5864-2.5863 4.0394-6.0942 4.0394-9.7518v-13.7912c0-3.6577-1.453-7.1655-4.0394-9.75186-2.5863-2.58635-6.0942-4.03935-9.7518-4.03935-3.6577 0-7.1655 1.453-9.7519 4.03935-2.5863 2.58636-4.0393 6.09416-4.0393 9.75186v16.0897h-6.89561c-1.21921 0-2.3885-.4843-3.25061-1.3464-.862119-.8621-1.346452-2.0314-1.346452-3.2506v-9.1942c0-1.2192.484333-2.3885 1.346452-3.2506.86211-.8621 2.0314-1.3464 3.25061-1.3464h2.44105c.56091-4.4434 2.72396-8.52928 6.08326-11.49116s7.6839-4.596145 12.1625-4.596145 8.8032 1.634265 12.1625 4.596145 5.5223 7.04776 6.0832 11.49116zm-38.93251 4.597v9.1942h2.29854v-9.1942zm39.07511 0v9.1942h2.2985v-9.1942zm-28.1341 13.297 2.4365-3.8983c2.1906 1.3723 4.7243 2.0982 7.3093 2.094 2.585.0042 5.1186-.7217 7.3093-2.094l2.4365 3.8983c-2.9209 1.83-6.2991 2.798-9.7458 2.7928-3.4468.0052-6.825-.9628-9.7458-2.7928z" fill="url(#a)"/></svg>