<svg width="23" height="21" viewBox="0 0 23 21" fill="none" xmlns="http://www.w3.org/2000/svg">
<path fill-rule="evenodd" clip-rule="evenodd" d="M11.8006 0.213789C12.0168 0.473544 11.9909 0.867616 11.7428 1.09397L0.986911 10.9091C0.738857 11.1355 0.362536 11.1084 0.146374 10.8487C-0.0697884 10.5889 -0.0439347 10.1948 0.20412 9.96847L10.9601 0.15332C11.2081 -0.0730381 11.5844 -0.0459649 11.8006 0.213789Z" fill="#8D9BA3"/>
<path fill-rule="evenodd" clip-rule="evenodd" d="M10.9817 0.241506C11.1922 -0.0232874 11.5678 -0.0592412 11.8207 0.161201L22.7854 9.71993C23.0382 9.94038 23.0726 10.3337 22.862 10.5985C22.6515 10.8633 22.2759 10.8993 22.023 10.6788L11.0583 1.1201C10.8055 0.899661 10.7711 0.5063 10.9817 0.241506Z" fill="#8D9BA3"/>
<path fill-rule="evenodd" clip-rule="evenodd" d="M3.42949 7.29593C3.75851 7.29593 4.02524 7.57524 4.02524 7.91978V17.9669C4.02524 18.9475 4.79383 19.7523 5.73029 19.7523H17.2697C18.2062 19.7523 18.9748 18.9475 18.9748 17.9669V8.10383C18.9748 7.75928 19.2415 7.47998 19.5705 7.47998C19.8995 7.47998 20.1663 7.75928 20.1663 8.10383V17.9669C20.1663 19.6366 18.8642 21.0001 17.2697 21.0001H5.73029C4.13578 21.0001 2.83374 19.6366 2.83374 17.9669V7.91978C2.83374 7.57524 3.10047 7.29593 3.42949 7.29593Z" fill="#8D9BA3"/>
</svg>
