<svg width="23" height="21" viewBox="0 0 23 21" fill="none" xmlns="http://www.w3.org/2000/svg">
<g clip-path="url(#clip0_13_37)">
<path fill-rule="evenodd" clip-rule="evenodd" d="M11.8006 0.21382C12.0168 0.473574 11.9909 0.867646 11.7428 1.094L0.986911 10.9092C0.738857 11.1355 0.362536 11.1084 0.146374 10.8487C-0.0697884 10.5889 -0.0439347 10.1949 0.20412 9.9685L10.9601 0.15335C11.2081 -0.0730076 11.5844 -0.0459344 11.8006 0.21382Z" fill="#02A884"/>
<path fill-rule="evenodd" clip-rule="evenodd" d="M10.9818 0.241506C11.1923 -0.0232874 11.5679 -0.0592412 11.8208 0.161201L22.7855 9.71993C23.0383 9.94038 23.0727 10.3337 22.8622 10.5985C22.6517 10.8633 22.276 10.8993 22.0231 10.6788L11.0585 1.1201C10.8056 0.899661 10.7713 0.5063 10.9818 0.241506Z" fill="#02A884"/>
<path fill-rule="evenodd" clip-rule="evenodd" d="M3.42937 7.29596C3.75839 7.29596 4.02512 7.57527 4.02512 7.91981V17.9669C4.02512 18.9475 4.79371 19.7524 5.73017 19.7524H17.2696C18.206 19.7524 18.9746 18.9475 18.9746 17.9669V8.10386C18.9746 7.75931 19.2414 7.48001 19.5704 7.48001C19.8994 7.48001 20.1661 7.75931 20.1661 8.10386V17.9669C20.1661 19.6366 18.8641 21.0001 17.2696 21.0001H5.73017C4.13566 21.0001 2.83362 19.6366 2.83362 17.9669V7.91981C2.83362 7.57527 3.10034 7.29596 3.42937 7.29596Z" fill="#02A884"/>
</g>
<defs>
<clipPath id="clip0_13_37">
<rect width="23" height="21" fill="white"/>
</clipPath>
</defs>
</svg>
