<svg width="19" height="21" viewBox="0 0 19 21" fill="none" xmlns="http://www.w3.org/2000/svg">
<path fill-rule="evenodd" clip-rule="evenodd" d="M12.4409 2.96837C11.4819 2.474 10.2298 2.24342 8.58591 2.43254C7.2185 2.58985 6.22848 3.1245 5.4998 3.85593C4.76438 4.59413 4.2751 5.55359 3.95397 6.58257C3.32882 8.58576 3.36866 10.7538 3.38808 11.8107C3.38871 11.8448 3.38931 11.8778 3.38988 11.9095C3.42775 14.0508 2.29093 15.1526 1.7564 15.6706C1.73705 15.6894 1.71849 15.7074 1.7008 15.7246C1.59929 15.8236 1.56522 15.9715 1.58877 16.1667C1.5912 16.1868 1.59417 16.2066 1.59755 16.2258H17.5821C17.631 15.992 17.6253 15.8457 17.5908 15.7364C17.5463 15.5952 17.4236 15.424 17.0457 15.1815C17.0232 15.1671 17.0021 15.1507 16.9824 15.1326C16.4278 14.6206 16.157 13.9364 16.022 13.4157C15.9533 13.1507 15.9166 12.9156 15.8969 12.746C15.887 12.6609 15.8814 12.5914 15.8781 12.542C15.8765 12.5173 15.8755 12.4975 15.8749 12.4832C15.8747 12.4778 15.8745 12.4732 15.8743 12.4694L15.8742 12.4659L15.8741 12.4604L15.874 12.4585L15.874 12.4574C15.874 12.4573 15.874 12.4571 16.3315 12.4462L15.874 12.4574C15.8739 12.4546 15.8739 12.4516 15.8738 12.4488C15.8738 12.4462 15.8738 12.4436 15.8739 12.441C15.9028 9.894 15.6622 7.18009 14.6192 5.21224C14.1037 4.23948 13.3989 3.46219 12.4409 2.96837ZM16.7892 12.4407C16.8177 9.87421 16.5841 6.9649 15.428 4.78361C14.8432 3.68028 14.0159 2.7505 12.8603 2.15481C11.7058 1.55965 10.2631 1.31826 8.4813 1.52324C6.91204 1.70377 5.72911 2.32888 4.85136 3.20994C3.98035 4.08424 3.42972 5.19004 3.08023 6.30989C2.40978 8.45825 2.4528 10.7539 2.47261 11.8108C2.47336 11.8509 2.47407 11.8893 2.47472 11.9257C2.50555 13.6689 1.614 14.5336 1.11515 15.0175C1.09683 15.0352 1.07903 15.0525 1.06183 15.0693C0.667495 15.4537 0.640597 15.9491 0.680057 16.2763C0.700389 16.4449 0.740153 16.5908 0.774079 16.6937C0.791248 16.7458 0.807468 16.7885 0.819995 16.8195C0.826274 16.8351 0.831672 16.8478 0.835858 16.8574C0.837953 16.8622 0.839749 16.8662 0.841205 16.8694L0.843131 16.8737L0.843896 16.8753L0.844226 16.876L0.844379 16.8764C0.844451 16.8765 0.844522 16.8767 1.2594 16.6835L0.844522 16.8767C0.919637 17.038 1.08145 17.1411 1.2594 17.1411H17.9338C18.1344 17.1411 18.3117 17.0104 18.371 16.8187C18.5165 16.3481 18.6001 15.8937 18.4638 15.4612C18.3277 15.0294 18.0045 14.7151 17.5765 14.4348C17.222 14.0936 17.0195 13.6159 16.908 13.186C16.8521 12.9703 16.8221 12.778 16.8061 12.6406C16.7982 12.5721 16.7938 12.518 16.7915 12.4823C16.7903 12.4645 16.7897 12.4513 16.7893 12.4433L16.7892 12.4407Z" fill="#02A884"/>
<path fill-rule="evenodd" clip-rule="evenodd" d="M8.92825 1.17375H10.2711C10.2152 0.853574 9.93589 0.6102 9.59971 0.6102H9.59969C9.26351 0.6102 8.98418 0.853574 8.92825 1.17375ZM8.30786 1.29185C8.30786 0.578395 8.88621 0 9.59969 0H9.59971C10.3132 0 10.8915 0.578395 10.8915 1.29185C10.8915 1.37547 10.8835 1.45716 10.8683 1.53625C10.8408 1.68001 10.715 1.78395 10.5687 1.78395H8.63073C8.48437 1.78395 8.35862 1.68002 8.33108 1.53627C8.31593 1.45719 8.30786 1.37548 8.30786 1.29185Z" fill="#02A884"/>
<path fill-rule="evenodd" clip-rule="evenodd" d="M5.98699 17.9105C5.99887 17.6667 6.2 17.4751 6.44409 17.4751H12.7553C12.9994 17.4751 13.2005 17.6667 13.2124 17.9105C13.2994 19.6944 11.5448 21 9.5997 21H9.59968C7.65462 21 5.90005 19.6944 5.98699 17.9105ZM6.94369 18.3904C7.16322 19.2917 8.182 20.0847 9.59968 20.0847H9.5997C11.0174 20.0847 12.0362 19.2917 12.2557 18.3904H6.94369Z" fill="#02A884"/>
</svg>
