<svg width="19" height="21" viewBox="0 0 19 21" fill="none" xmlns="http://www.w3.org/2000/svg">
<path fill-rule="evenodd" clip-rule="evenodd" d="M12.4408 2.96831C11.4818 2.47394 10.2297 2.24336 8.58578 2.43248C7.21837 2.58979 6.22836 3.12444 5.49967 3.85587C4.76425 4.59407 4.27497 5.55353 3.95385 6.58251C3.3287 8.5857 3.36854 10.7537 3.38796 11.8107C3.38859 11.8448 3.38919 11.8777 3.38975 11.9095C3.42763 14.0508 2.29081 15.1525 1.75628 15.6706C1.73693 15.6893 1.71837 15.7073 1.70068 15.7246C1.59917 15.8235 1.5651 15.9714 1.58865 16.1667C1.59108 16.1868 1.59405 16.2065 1.59742 16.2258H17.5819C17.6309 15.9919 17.6252 15.8456 17.5907 15.7363C17.5462 15.5952 17.4235 15.424 17.0456 15.1814C17.0231 15.167 17.0019 15.1506 16.9823 15.1325C16.4277 14.6205 16.1569 13.9364 16.0219 13.4156C15.9532 13.1506 15.9165 12.9156 15.8968 12.7459C15.8869 12.6608 15.8813 12.5914 15.878 12.542C15.8764 12.5172 15.8754 12.4974 15.8748 12.4831C15.8745 12.4777 15.8744 12.4731 15.8742 12.4693L15.8741 12.4658L15.8739 12.4604L15.8739 12.4584L15.8739 12.4574C15.8738 12.4572 15.8738 12.4571 16.3314 12.4462L15.8739 12.4574C15.8738 12.4546 15.8737 12.4515 15.8737 12.4487C15.8737 12.4461 15.8737 12.4436 15.8737 12.441C15.9027 9.89394 15.6621 7.18003 14.6191 5.21218C14.1036 4.23942 13.3987 3.46213 12.4408 2.96831ZM16.7891 12.4407C16.8175 9.87415 16.5839 6.96484 15.4278 4.78355C14.8431 3.68022 14.0157 2.75044 12.8602 2.15474C11.7057 1.55959 10.2629 1.3182 8.48118 1.52317C6.91192 1.70371 5.72899 2.32882 4.85124 3.20988C3.98023 4.08418 3.4296 5.18998 3.08011 6.30983C2.40965 8.45819 2.45268 10.7539 2.47248 11.8108C2.47324 11.8509 2.47395 11.8892 2.4746 11.9256C2.50543 13.6689 1.61387 14.5336 1.11503 15.0174C1.09671 15.0352 1.07891 15.0524 1.06171 15.0692C0.667373 15.4537 0.640475 15.9491 0.679935 16.2763C0.700266 16.4448 0.740031 16.5908 0.773957 16.6937C0.791125 16.7458 0.807346 16.7885 0.819873 16.8195C0.826152 16.835 0.83155 16.8477 0.835736 16.8573C0.837831 16.8621 0.839626 16.8661 0.841083 16.8694L0.843009 16.8736L0.843773 16.8753L0.844104 16.876L0.844257 16.8763C0.844329 16.8765 0.8444 16.8766 1.25928 16.6834L0.8444 16.8766C0.919515 17.0379 1.08133 17.1411 1.25928 17.1411H17.9337C18.1343 17.1411 18.3116 17.0104 18.3709 16.8186C18.5164 16.3481 18.6 15.8936 18.4637 15.4611C18.3275 15.0294 18.0044 14.715 17.5764 14.4347C17.2219 14.0936 17.0193 13.6158 16.9079 13.1859C16.852 12.9702 16.8219 12.7779 16.806 12.6405C16.7981 12.5721 16.7937 12.518 16.7914 12.4823C16.7902 12.4644 16.7896 12.4513 16.7892 12.4432L16.7891 12.4407Z" fill="#8D9BA3"/>
<path fill-rule="evenodd" clip-rule="evenodd" d="M8.92813 1.17375H10.271C10.2151 0.853574 9.93577 0.6102 9.59959 0.6102H9.59957C9.26339 0.6102 8.98405 0.853574 8.92813 1.17375ZM8.30774 1.29185C8.30774 0.578395 8.88609 0 9.59957 0H9.59959C10.3131 0 10.8914 0.578395 10.8914 1.29185C10.8914 1.37547 10.8833 1.45716 10.8682 1.53625C10.8407 1.68001 10.7149 1.78395 10.5685 1.78395H8.63061C8.48424 1.78395 8.3585 1.68002 8.33096 1.53627C8.31581 1.45719 8.30774 1.37548 8.30774 1.29185Z" fill="#8D9BA3"/>
<path fill-rule="evenodd" clip-rule="evenodd" d="M5.98686 17.9105C5.99875 17.6667 6.19988 17.4751 6.44397 17.4751H12.7552C12.9993 17.4751 13.2004 17.6667 13.2123 17.9105C13.2992 19.6944 11.5446 21 9.59958 21H9.59956C7.6545 21 5.89993 19.6944 5.98686 17.9105ZM6.94357 18.3904C7.1631 19.2917 8.18188 20.0847 9.59956 20.0847H9.59958C11.0173 20.0847 12.0361 19.2917 12.2556 18.3904H6.94357Z" fill="#8D9BA3"/>
</svg>
