<svg width="15" height="21" viewBox="0 0 15 21" fill="none" xmlns="http://www.w3.org/2000/svg">
<path fill-rule="evenodd" clip-rule="evenodd" d="M7.53277 1.25514C4.44764 1.25514 1.94664 3.85191 1.94664 7.05519C1.94664 10.2585 4.44764 12.8552 7.53277 12.8552C10.6179 12.8552 13.1189 10.2585 13.1189 7.05519C13.1189 3.85191 10.6179 1.25514 7.53277 1.25514ZM0.737793 7.05519C0.737793 3.15872 3.78001 0 7.53277 0C11.2855 0 14.3277 3.15872 14.3277 7.05519C14.3277 10.9517 11.2855 14.1104 7.53277 14.1104C3.78001 14.1104 0.737793 10.9517 0.737793 7.05519Z" fill="#8D9BA3"/>
<path fill-rule="evenodd" clip-rule="evenodd" d="M1.9547 19.7449H13.1109C12.2533 17.4135 10.0788 15.7579 7.53291 15.7578M1.9547 19.7449C2.81219 17.4135 4.98671 15.7579 7.53277 15.7578L1.9547 19.7449ZM7.53277 14.5027C4.14075 14.5028 1.30013 16.9451 0.549205 20.2274L7.53277 14.5027ZM7.53291 14.5027C10.9248 14.5028 13.7654 16.9451 14.5165 20.2274C14.5592 20.4141 14.5173 20.6109 14.4026 20.7615C14.288 20.9121 14.1133 21 13.9284 21H1.13727C0.952391 21 0.777682 20.9121 0.663052 20.7615C0.548422 20.6109 0.506479 20.4141 0.549205 20.2274" fill="#8D9BA3"/>
</svg>
