<svg width="15" height="21" viewBox="0 0 15 21" fill="none" xmlns="http://www.w3.org/2000/svg">
<path fill-rule="evenodd" clip-rule="evenodd" d="M7.53277 1.25514C4.44764 1.25514 1.94664 3.85191 1.94664 7.05519C1.94664 10.2585 4.44764 12.8552 7.53277 12.8552C10.6179 12.8552 13.1189 10.2585 13.1189 7.05519C13.1189 3.85191 10.6179 1.25514 7.53277 1.25514ZM0.737793 7.05519C0.737793 3.15872 3.78001 0 7.53277 0C11.2855 0 14.3277 3.15872 14.3277 7.05519C14.3277 10.9517 11.2855 14.1104 7.53277 14.1104C3.78001 14.1104 0.737793 10.9517 0.737793 7.05519Z" fill="#02A884"/>
<path fill-rule="evenodd" clip-rule="evenodd" d="M1.95458 19.7449H13.1108C12.2532 17.4135 10.0787 15.7579 7.53279 15.7578M1.95458 19.7449C2.81206 17.4135 4.98659 15.7579 7.53264 15.7578L1.95458 19.7449ZM7.53264 14.5027C4.14063 14.5028 1.30001 16.9451 0.549083 20.2274L7.53264 14.5027ZM7.53279 14.5027C10.9247 14.5028 13.7653 16.9451 14.5163 20.2274C14.5591 20.4141 14.5171 20.6109 14.4025 20.7615C14.2879 20.9121 14.1132 21 13.9283 21H1.13714C0.952269 21 0.77756 20.9121 0.66293 20.7615C0.5483 20.6109 0.506357 20.4141 0.549083 20.2274" fill="#02A884"/>
</svg>
