<svg width="19" height="21" viewBox="0 0 19 21" fill="none" xmlns="http://www.w3.org/2000/svg">
<path fill-rule="evenodd" clip-rule="evenodd" d="M9.33333 1.27375C4.88215 1.27375 1.27375 4.88215 1.27375 9.33333C1.27375 13.7845 4.88215 17.3929 9.33333 17.3929C13.7845 17.3929 17.3929 13.7845 17.3929 9.33333C17.3929 4.88215 13.7845 1.27375 9.33333 1.27375ZM0 9.33333C0 4.17868 4.17868 0 9.33333 0C14.488 0 18.6667 4.17868 18.6667 9.33333C18.6667 14.488 14.488 18.6667 9.33333 18.6667C4.17868 18.6667 0 14.488 0 9.33333Z" fill="#02A884"/>
<path fill-rule="evenodd" clip-rule="evenodd" d="M15.45 17.6158C15.7616 17.423 16.2025 17.4765 16.4347 17.7352L18.5273 20.0667C18.7595 20.3254 18.6951 20.6914 18.3835 20.8842C18.0719 21.077 17.631 21.0235 17.3988 20.7648L15.3062 18.4333C15.074 18.1746 15.1384 17.8086 15.45 17.6158Z" fill="#02A884"/>
</svg>
